<svg width="270" height="140" viewBox="0 0 270 140" fill="none" xmlns="http://www.w3.org/2000/svg">
<mask id="mask0_2_2411" style="mask-type:alpha" maskUnits="userSpaceOnUse" x="0" y="0" width="270" height="140">
<rect width="270" height="140" rx="12" fill="white"/>
</mask>
<g mask="url(#mask0_2_2411)">
<g style="mix-blend-mode:multiply">
<path d="M14.3872 131.488L11.8391 129.785C6.8614 126.46 0.306075 129.991 0 136.162V145.833H137.389H274.779V86.3229C274.779 77.4016 263.038 74.9827 259.806 83.238C259.522 83.9617 259.34 84.7243 259.265 85.5024L257.757 101.065C256.071 108.754 246.148 110.161 242.523 103.244C241.745 101.76 240.962 100.272 240.192 98.8126C236.523 91.8635 227.399 92.0333 223.787 99.0145L220.283 105.785C217.899 110.391 212.461 112.202 207.971 109.884L205.558 108.639C202.732 107.179 199.309 108.147 197.569 110.897C194.871 115.162 188.751 114.69 186.679 110.057L181.998 99.5888C178.724 92.2678 168.807 92.1686 165.4 99.4228L164.401 101.55C162.527 105.541 157.763 106.957 154.164 104.592C150.597 102.249 145.877 103.616 143.969 107.545L140.688 114.304C138.121 119.591 131.526 121.015 127.169 117.223C123.924 114.399 119.222 114.372 115.949 117.16L113.623 119.141C110.897 121.462 106.993 121.481 104.247 119.185L100.219 115.817C99.2376 114.997 97.8078 115.16 97.0187 116.181C96.275 117.145 94.9511 117.353 93.9693 116.662L87.7873 112.309C83.8434 109.532 78.6028 109.902 75.0511 113.208L59.987 127.229C59.0722 128.081 57.6214 127.644 57.2791 126.414C57.1655 126.006 56.9133 125.655 56.5698 125.428L45.9489 118.399L45.2701 117.992C39.1985 114.355 31.4611 117.365 29.135 124.269L28.4055 126.434C26.3787 132.449 19.5252 134.92 14.3872 131.488Z" fill="#5C4BA7" fill-opacity="0.13"/>
</g>
<g style="mix-blend-mode:multiply">
<path d="M274.779 86.3229C274.779 77.4016 263.038 74.9827 259.806 83.238C259.522 83.9617 259.34 84.7243 259.265 85.5024L257.757 101.065C256.071 108.754 246.148 110.161 242.523 103.244C241.745 101.76 240.962 100.272 240.192 98.8126C236.523 91.8635 227.399 92.0333 223.787 99.0145L220.283 105.785C217.899 110.391 212.461 112.202 207.971 109.884L205.558 108.639C202.732 107.179 199.309 108.147 197.569 110.897C194.871 115.162 188.751 114.69 186.679 110.057L181.998 99.5888C178.724 92.2678 168.807 92.1686 165.4 99.4228L164.401 101.55C162.527 105.541 157.763 106.957 154.164 104.592C150.597 102.249 145.877 103.616 143.969 107.545L140.688 114.304C138.121 119.591 131.526 121.015 127.169 117.223C123.924 114.399 119.222 114.372 115.949 117.16L113.623 119.141C110.897 121.462 106.993 121.481 104.247 119.185L100.219 115.817C99.2376 114.997 97.8078 115.16 97.0187 116.181C96.275 117.145 94.9511 117.353 93.9693 116.662L87.7873 112.309C83.8434 109.532 78.6028 109.902 75.0511 113.208L59.987 127.229C59.0722 128.081 57.6214 127.644 57.2791 126.414C57.1655 126.006 56.9133 125.655 56.5698 125.428L45.9489 118.399L45.2701 117.992C39.1985 114.355 31.4611 117.365 29.135 124.269L28.4055 126.434C26.3787 132.449 19.5252 134.92 14.3872 131.488L11.8391 129.785C6.8614 126.46 0.306075 129.991 0 136.162" stroke="#5C4BA7" stroke-width="2"/>
</g>
</g>
</svg>
