<svg width="28" height="29" viewBox="0 0 28 29" fill="none" xmlns="http://www.w3.org/2000/svg">
<path d="M22.1521 2.85315H21.6104V1.42657C21.6104 0.559441 21.0417 0 20.2292 0C19.4167 0 18.8479 0.559441 18.8479 1.42657V2.85315H9.85625V1.42657C9.85625 0.559441 9.31458 0 8.475 0C7.63542 0 7.09375 0.559441 7.09375 1.42657V2.85315H5.84792C3.22083 2.85315 1 5.14685 1 7.86014V22.993C1 25.7063 3.22083 28 5.84792 28H22.1521C24.7792 28 27 25.7063 27 22.993V7.86014C27 5.14685 24.7792 2.85315 22.1521 2.85315ZM5.84792 5.70629H22.1521C23.2625 5.70629 24.2375 6.71329 24.2375 7.86014V9.84615H3.7625V7.86014C3.7625 6.71329 4.7375 5.70629 5.84792 5.70629ZM22.1521 25.1189H5.84792C4.7375 25.1189 3.7625 24.1119 3.7625 22.965V12.6993H24.2104V22.965C24.2375 24.1119 23.2625 25.1189 22.1521 25.1189Z" fill="#5C4BA7"/>
</svg>
