<svg width="24" height="24" viewBox="0 0 24 24" fill="none" xmlns="http://www.w3.org/2000/svg">
<path d="M18.9777 14.8672C18.4856 14.3556 17.8921 14.0821 17.2631 14.0821C16.6392 14.0821 16.0406 14.3505 15.5282 14.8621L13.9252 16.4577C13.7934 16.3868 13.6615 16.3209 13.5346 16.2551C13.352 16.1639 13.1796 16.0778 13.0324 15.9866C11.5309 15.0343 10.1663 13.7933 8.85758 12.1876C8.22349 11.3873 7.79738 10.7136 7.48794 10.0298C7.90391 9.64986 8.28944 9.25476 8.66482 8.87486C8.80685 8.73303 8.94889 8.58613 9.09093 8.4443C10.1562 7.38057 10.1562 6.00279 9.09093 4.93907L7.70607 3.55622C7.54882 3.3992 7.38649 3.2371 7.23431 3.07501C6.92994 2.76096 6.61036 2.43678 6.28063 2.13285C5.78858 1.64658 5.20014 1.38824 4.58126 1.38824C3.96239 1.38824 3.36381 1.64658 2.85653 2.13285C2.85146 2.13792 2.85146 2.13792 2.84639 2.14298L1.12166 3.8804C0.472347 4.52877 0.102037 5.31897 0.0208736 6.2358C-0.100872 7.71489 0.335383 9.09267 0.670184 9.9943C1.49197 12.2079 2.71957 14.2593 4.55083 16.4577C6.77269 19.1069 9.44602 21.1989 12.4998 22.6729C13.6665 23.225 15.2239 23.8785 16.9638 23.9899C17.0703 23.995 17.1819 24 17.2834 24C18.4552 24 19.4393 23.5796 20.2104 22.7438C20.2154 22.7337 20.2256 22.7286 20.2307 22.7185C20.4944 22.3994 20.7988 22.1107 21.1184 21.8017C21.3365 21.594 21.5597 21.3762 21.7778 21.1482C22.28 20.6265 22.5438 20.0187 22.5438 19.3956C22.5438 18.7675 22.275 18.1647 21.7626 17.6582L18.9777 14.8672ZM20.7937 20.201C20.7887 20.201 20.7887 20.2061 20.7937 20.201C20.5959 20.4138 20.393 20.6062 20.1749 20.819C19.8451 21.133 19.5103 21.4623 19.1958 21.8321C18.6835 22.3791 18.0798 22.6375 17.2885 22.6375C17.2124 22.6375 17.1312 22.6375 17.0551 22.6324C15.5485 22.5361 14.1484 21.9486 13.0984 21.4471C10.2272 20.0592 7.70607 18.0888 5.61103 15.5915C3.88123 13.5097 2.72464 11.5848 1.95866 9.51816C1.48689 8.25688 1.31442 7.2742 1.39051 6.34724C1.44124 5.75459 1.66951 5.26325 2.09055 4.84282L3.82035 3.11553C4.06892 2.88253 4.3327 2.75589 4.59141 2.75589C4.91099 2.75589 5.1697 2.94838 5.33203 3.11047C5.3371 3.11553 5.34217 3.1206 5.34725 3.12567C5.65668 3.41439 5.9509 3.71325 6.26034 4.03237C6.41759 4.19446 6.57992 4.35655 6.74225 4.52371L8.12711 5.90655C8.66482 6.44348 8.66482 6.93989 8.12711 7.47682C7.98 7.62371 7.83796 7.77061 7.69085 7.91244C7.26474 8.34806 6.85892 8.75329 6.4176 9.14839C6.40745 9.15852 6.3973 9.16358 6.39223 9.17371C5.95598 9.60933 6.03714 10.0348 6.12845 10.3236C6.13352 10.3387 6.13859 10.3539 6.14367 10.3691C6.50383 11.2404 7.01111 12.061 7.78216 13.0386L7.78723 13.0437C9.18731 14.7659 10.6635 16.1082 12.2918 17.1365C12.4998 17.2682 12.7129 17.3745 12.9158 17.4758C13.0984 17.567 13.2709 17.6531 13.418 17.7443C13.4383 17.7544 13.4586 17.7696 13.4788 17.7798C13.6513 17.8659 13.8136 17.9064 13.981 17.9064C14.4021 17.9064 14.6659 17.643 14.7521 17.5569L16.487 15.8245C16.6595 15.6523 16.9334 15.4446 17.253 15.4446C17.5675 15.4446 17.8262 15.6422 17.9834 15.8144C17.9885 15.8195 17.9885 15.8195 17.9936 15.8245L20.7887 18.6156C21.3112 19.1322 21.3112 19.6641 20.7937 20.201Z" fill="#5C4BA7"/>
<path d="M12.9717 5.70896C14.3007 5.93184 15.508 6.55994 16.4718 7.52236C17.4357 8.48478 18.0596 9.69034 18.2879 11.0175C18.3437 11.3518 18.6328 11.5848 18.9626 11.5848C19.0031 11.5848 19.0386 11.5797 19.0792 11.5747C19.4546 11.5139 19.7032 11.1593 19.6423 10.7845C19.3684 9.17874 18.6075 7.71484 17.4458 6.55488C16.2841 5.39491 14.8181 4.6351 13.2101 4.36157C12.8347 4.30079 12.4847 4.54899 12.4187 4.91876C12.3528 5.28853 12.5963 5.64818 12.9717 5.70896Z" fill="#5C4BA7"/>
<path d="M23.9896 10.5869C23.5381 7.94279 22.2902 5.53674 20.3727 3.62203C18.4553 1.70732 16.0457 0.461243 13.3977 0.0104253C13.0274 -0.0554245 12.6774 0.197844 12.6115 0.567616C12.5506 0.942453 12.7991 1.29196 13.1745 1.35781C15.5384 1.75798 17.6943 2.87742 19.4089 4.58445C21.1235 6.29655 22.2395 8.44933 22.6403 10.8098C22.6961 11.1441 22.9852 11.3771 23.3149 11.3771C23.3555 11.3771 23.391 11.372 23.4316 11.367C23.8019 11.3113 24.0556 10.9567 23.9896 10.5869Z" fill="#5C4BA7"/>
</svg>
