<svg width="57" height="56" viewBox="0 0 57 56" fill="none" xmlns="http://www.w3.org/2000/svg">
<circle cx="28.5" cy="28" r="28" fill="#5C4BA7" fill-opacity="0.15"/>
<path d="M33.375 15C28.7095 15 23.75 16.5184 23.75 19.3333V22.8C23.75 23.2784 24.142 23.6667 24.625 23.6667C25.108 23.6667 25.5 23.2784 25.5 22.8V21.8969C27.3568 23.0565 30.4227 23.6667 33.375 23.6667C36.3273 23.6667 39.3933 23.0565 41.25 21.8969V22.8C41.25 23.6476 39.0975 24.9996 35.0515 25.3341C34.572 25.3723 34.2133 25.7935 34.2535 26.2701C34.2902 26.7225 34.6735 27.064 35.1232 27.064C35.1495 27.064 35.1722 27.0623 35.1985 27.0605C37.477 26.8716 39.7467 26.2875 41.25 25.3393V26.2667C41.25 27.0068 39.6645 28.0711 36.7227 28.5859C36.2485 28.6691 35.93 29.1197 36.014 29.5895C36.0893 30.0089 36.4585 30.3053 36.8732 30.3053C36.924 30.3053 36.9765 30.3019 37.0273 30.2915C38.807 29.9812 40.2315 29.4733 41.25 28.8285V29.7333C41.25 30.4735 39.6645 31.5377 36.7227 32.0525C36.2485 32.1357 35.93 32.5864 36.014 33.0561C36.0893 33.4756 36.4585 33.772 36.8732 33.772C36.924 33.772 36.9765 33.7685 37.0273 33.7581C38.807 33.4479 40.2315 32.9383 41.25 32.2952V33.2C41.25 33.9401 39.6645 35.0044 36.7227 35.5192C36.2485 35.6024 35.93 36.0531 36.014 36.5228C36.0893 36.9423 36.4585 37.2387 36.8732 37.2387C36.924 37.2387 36.9765 37.2352 37.0273 37.2248C38.807 36.9145 40.2315 36.4049 41.25 35.7619V36.6667C41.25 37.5143 39.0975 38.8663 35.0515 39.2008C34.572 39.2389 34.2133 39.6601 34.2535 40.1368C34.2902 40.5892 34.6735 40.9307 35.1232 40.9307C35.1495 40.9307 35.1722 40.9289 35.1985 40.9272C39.0817 40.6048 43 39.1644 43 36.6667V19.3333C43 16.5184 38.0405 15 33.375 15ZM33.375 21.9333C28.5677 21.9333 25.5 20.3924 25.5 19.3333C25.5 18.2743 28.5677 16.7333 33.375 16.7333C38.1823 16.7333 41.25 18.2743 41.25 19.3333C41.25 20.3924 38.1823 21.9333 33.375 21.9333Z" fill="#5C4BA7"/>
<path d="M24.625 25.4C19.9595 25.4 15 26.9184 15 29.7334V36.6667C15 39.4816 19.9595 41 24.625 41C29.2905 41 34.25 39.4816 34.25 36.6667V29.7334C34.25 26.9184 29.2905 25.4 24.625 25.4ZM32.5 36.6667C32.5 37.7258 29.4323 39.2667 24.625 39.2667C19.8177 39.2667 16.75 37.7258 16.75 36.6667V35.7636C18.6068 36.9232 21.6727 37.5334 24.625 37.5334C27.5773 37.5334 30.6433 36.9232 32.5 35.7636V36.6667ZM32.5 33.2C32.5 34.2591 29.4323 35.8 24.625 35.8C19.8177 35.8 16.75 34.2591 16.75 33.2V32.297C18.6068 33.4566 21.6727 34.0667 24.625 34.0667C27.5773 34.0667 30.6433 33.4566 32.5 32.297V33.2ZM24.625 32.3334C19.8177 32.3334 16.75 30.7924 16.75 29.7334C16.75 28.6743 19.8177 27.1334 24.625 27.1334C29.4323 27.1334 32.5 28.6743 32.5 29.7334C32.5 30.7924 29.4323 32.3334 24.625 32.3334Z" fill="#5C4BA7"/>
</svg>
