<svg width="26" height="30" viewBox="0 0 26 30" fill="none" xmlns="http://www.w3.org/2000/svg">
<path d="M21.9556 15.4021V12.5977C21.9556 8.50652 19.274 5.039 15.6 3.90645V2.63672C15.6 1.18283 14.4337 0 13 0C11.5664 0 10.4 1.18283 10.4 2.63672V3.90645C6.72596 5.039 4.0445 8.50646 4.0445 12.5977V15.4021C4.0445 18.9957 2.69377 22.4033 0.241173 24.9971C0.000818636 25.2513 -0.0667234 25.6264 0.0695162 25.9503C0.205756 26.2742 0.519488 26.4844 0.866732 26.4844H8.75389C9.15649 28.4878 10.9074 30 13 30C15.0927 30 16.8435 28.4878 17.2462 26.4844H25.1333C25.4806 26.4844 25.7942 26.2742 25.9305 25.9503C26.0667 25.6264 25.9992 25.2513 25.7589 24.9971C23.3063 22.4033 21.9556 18.9957 21.9556 15.4021ZM12.1334 2.63672C12.1334 2.15209 12.5222 1.75781 13 1.75781C13.4779 1.75781 13.8667 2.15209 13.8667 2.63672V3.55828C13.5814 3.53039 13.2924 3.51562 13 3.51562C12.7077 3.51562 12.4186 3.53039 12.1334 3.55828V2.63672ZM13 28.2422C11.8702 28.2422 10.9069 27.5074 10.5491 26.4844H15.451C15.0932 27.5074 14.1299 28.2422 13 28.2422ZM2.73468 24.7266C4.70842 22.0434 5.77783 18.7964 5.77783 15.4021V12.5977C5.77783 8.55908 9.01771 5.27344 13 5.27344C16.9823 5.27344 20.2222 8.55908 20.2222 12.5977V15.4021C20.2222 18.7964 21.2916 22.0434 23.2654 24.7266H2.73468Z" fill="#FEAA50"/>
<path d="M24.2671 12.5976C24.2671 13.083 24.6552 13.4765 25.1338 13.4765C25.6124 13.4765 26.0005 13.083 26.0005 12.5976C26.0005 9.07614 24.6482 5.76541 22.1929 3.27535C21.8545 2.93217 21.3057 2.93211 20.9672 3.27535C20.6288 3.6186 20.6288 4.17506 20.9672 4.5183C23.0952 6.67637 24.2671 9.54565 24.2671 12.5976Z" fill="#FEAA50"/>
<path d="M0.866664 13.4766C1.34529 13.4766 1.73333 13.083 1.73333 12.5976C1.73333 9.54573 2.90529 6.67645 5.03324 4.51839C5.3717 4.17514 5.3717 3.61868 5.03324 3.27544C4.69483 2.93219 4.14606 2.93219 3.8076 3.27544C1.35223 5.7655 0 9.07616 0 12.5976C0 13.083 0.388034 13.4766 0.866664 13.4766Z" fill="#FEAA50"/>
</svg>
