<svg width="30" height="30" viewBox="0 0 30 30" fill="none" xmlns="http://www.w3.org/2000/svg">
<path d="M29.1211 5.27344C29.6065 5.27344 30 4.87992 30 4.39453V0.878906C30 0.393516 29.6065 0 29.1211 0H25.6055C25.1201 0 24.7266 0.393516 24.7266 0.878906V1.75781H5.27344V0.878906C5.27344 0.393516 4.87992 0 4.39453 0H0.878906C0.393516 0 0 0.393516 0 0.878906V4.39453C0 4.87992 0.393516 5.27344 0.878906 5.27344H1.75781V24.7266H0.878906C0.393516 24.7266 0 25.1201 0 25.6055V29.1211C0 29.6065 0.393516 30 0.878906 30H4.39453C4.87992 30 5.27344 29.6065 5.27344 29.1211V28.2422H24.7266V29.1211C24.7266 29.6065 25.1201 30 25.6055 30H29.1211C29.6065 30 30 29.6065 30 29.1211V25.6055C30 25.1201 29.6065 24.7266 29.1211 24.7266H28.2422V5.27344H29.1211ZM1.75781 1.75781H3.51562V3.51562H1.75781V1.75781ZM3.51562 28.2422H1.75781V26.4844H3.51562V28.2422ZM24.7266 25.6055V26.4844H5.27344V25.6055C5.27344 25.1201 4.87992 24.7266 4.39453 24.7266H3.51562V5.27344H4.39453C4.87992 5.27344 5.27344 4.87992 5.27344 4.39453V3.51562H24.7266V4.39453C24.7266 4.87992 25.1201 5.27344 25.6055 5.27344H26.4844V24.7266H25.6055C25.1201 24.7266 24.7266 25.1201 24.7266 25.6055ZM28.2422 28.2422H26.4844V26.4844H28.2422V28.2422ZM26.4844 3.51562V1.75781H28.2422V3.51562H26.4844Z" fill="#FEAA50"/>
<path d="M22.0312 5.27344H7.96875C7.48336 5.27344 7.08984 5.66695 7.08984 6.15234V11.4258C7.08984 12.2052 8.03701 12.6006 8.5902 12.0473L10.0906 10.5469H12.3633V20.9448L10.7531 23.3601C10.364 23.9437 10.7842 24.7266 11.4844 24.7266H18.5156C19.2171 24.7266 19.6353 23.9428 19.2469 23.3602L17.6367 20.9448V10.5469H19.9092L21.4098 12.0473C21.9609 12.5984 22.9102 12.2083 22.9102 11.4258V6.15234C22.9102 5.66695 22.5166 5.27344 22.0312 5.27344ZM21.1523 9.3041L20.8946 9.04647C20.7298 8.88164 20.5063 8.78906 20.2733 8.78906H16.7578C16.2724 8.78906 15.8789 9.18258 15.8789 9.66797V21.2109C15.8789 21.3844 15.9303 21.5541 16.0266 21.6984L16.8734 22.9688H13.1266L13.9735 21.6984C14.0698 21.5541 14.1212 21.3844 14.1212 21.2109V9.66797C14.1212 9.18258 13.7276 8.78906 13.2422 8.78906H9.72662C9.49348 8.78906 9.26994 8.88164 9.10518 9.04647L8.84766 9.30393V7.03125H21.1523V9.3041Z" fill="#FEAA50"/>
</svg>
