<svg width="21" height="21" viewBox="0 0 21 21" fill="none" xmlns="http://www.w3.org/2000/svg">
<path d="M20.1229 8.98334C20.0755 8.67091 19.8601 8.41025 19.5627 8.30477L17.9871 7.74453C17.8939 7.48054 17.7882 7.22389 17.671 6.97563L18.3881 5.46674C18.5234 5.18221 18.4912 4.84567 18.3044 4.59121C17.7001 3.76928 16.978 3.0472 16.1582 2.44565C15.9036 2.25867 15.5682 2.22688 15.2831 2.36255L13.7751 3.079C13.5268 2.96181 13.2698 2.85633 13.0056 2.76312L12.4451 1.18732C12.3397 0.890507 12.0797 0.67564 11.768 0.627663C10.6603 0.457446 9.84058 0.457446 8.73125 0.627663C8.41985 0.67564 8.15953 0.890507 8.05405 1.18732L7.49358 2.76312C7.22936 2.85633 6.97237 2.96181 6.72434 3.079L5.2158 2.36255C4.93126 2.22699 4.5953 2.25879 4.34084 2.44565C3.52108 3.0472 2.79901 3.76928 2.1947 4.59121C2.00772 4.84567 1.9757 5.18209 2.11103 5.46674L2.82805 6.97563C2.71086 7.22343 2.60538 7.48065 2.51195 7.74453L0.936148 8.30534C0.638986 8.41082 0.42389 8.67137 0.376142 8.98334C0.290173 9.54805 0.25 10.0295 0.25 10.5006C0.25 10.971 0.290173 11.4532 0.376142 12.0179C0.423546 12.3303 0.638986 12.591 0.936378 12.6964L2.51195 13.2567C2.60538 13.5211 2.7112 13.7779 2.82805 14.0262L2.11103 15.5345C1.9757 15.819 2.00784 16.1555 2.19447 16.4094C2.79798 17.2308 3.52005 17.9529 4.34084 18.5556C4.5953 18.7425 4.93126 18.7749 5.21603 18.6387L6.72399 17.9222C6.97226 18.0394 7.22925 18.1449 7.49347 18.2381L8.05394 19.8139C8.15942 20.1107 8.41939 20.3256 8.73113 20.3735C9.28528 20.4589 9.78182 20.5003 10.2494 20.5003C10.717 20.5003 11.2137 20.4589 11.7677 20.3735C12.0793 20.3256 12.3394 20.1107 12.4449 19.8139L13.0054 18.2381C13.2696 18.1449 13.5266 18.0394 13.7749 17.9222L15.2828 18.6387C15.5679 18.7748 15.9039 18.7424 16.1584 18.5556C16.9801 17.9518 17.7021 17.2297 18.3045 16.4094C18.4911 16.1555 18.5233 15.819 18.3879 15.5345L17.6709 14.0262C17.7881 13.7779 17.8938 13.5206 17.987 13.2567L19.5626 12.6964C19.86 12.591 20.0754 12.3304 20.1228 12.0179C20.2088 11.4532 20.249 10.9711 20.249 10.5006C20.249 10.0301 20.2089 9.54794 20.1229 8.98334ZM18.4935 11.2571L17.0154 11.7828C16.757 11.8743 16.5584 12.0841 16.4805 12.3475C16.3485 12.7939 16.1748 13.2163 15.9636 13.6035C15.8325 13.8446 15.8244 14.1337 15.9421 14.3814L16.6125 15.7915C16.2886 16.1804 15.9304 16.5392 15.5408 16.8628L14.131 16.1932C13.883 16.0743 13.5948 16.0838 13.3534 16.2144C12.9656 16.4254 12.5429 16.5989 12.0962 16.7311C11.8334 16.8087 11.6236 17.0073 11.5319 17.2657L11.0059 18.7444C10.4691 18.799 10.03 18.799 9.49315 18.7444L8.96723 17.2657C8.87541 17.0079 8.66559 16.8086 8.40286 16.7311C7.95591 16.5989 7.53295 16.4254 7.14569 16.2144C6.90431 16.0828 6.61552 16.0744 6.36806 16.1932L4.95823 16.8634C4.56902 16.5391 4.21079 16.1809 3.88654 15.7915L4.55696 14.3814C4.67473 14.1336 4.66658 13.8446 4.5355 13.6035C4.32488 13.2174 4.15099 12.7945 4.01854 12.3469C3.94072 12.0841 3.7418 11.8743 3.48367 11.7828L2.00554 11.2571C1.97765 10.9882 1.96422 10.7404 1.96422 10.5005C1.96422 10.2606 1.97765 10.0134 2.00554 9.74444L3.48401 9.21829C3.74203 9.12681 3.94072 8.917 4.01854 8.65415C4.15076 8.20778 4.32465 7.78482 4.5355 7.39698C4.66658 7.15652 4.67473 6.86682 4.55696 6.6197L3.88654 5.20964C4.21102 4.82019 4.56925 4.46139 4.95823 4.13772L6.36864 4.80791C6.61552 4.92682 6.90546 4.9173 7.14626 4.78668C7.5333 4.57571 7.95591 4.40217 8.40286 4.26994C8.66571 4.19235 8.87552 3.99321 8.96723 3.73542L9.49315 2.25672C10.0249 2.20151 10.4649 2.20151 11.0059 2.25672L11.5319 3.73542C11.6237 3.99321 11.8335 4.19247 12.0962 4.26994C12.5432 4.40217 12.9661 4.57571 13.3534 4.78668C13.5948 4.91833 13.883 4.92671 14.131 4.80791L15.5408 4.13772C15.9298 4.46139 16.2881 4.82019 16.6125 5.20964L15.9421 6.6197C15.8244 6.86693 15.8325 7.15652 15.9636 7.39698C16.1751 7.78597 16.3489 8.20835 16.4805 8.65358C16.5584 8.917 16.757 9.12681 17.0154 9.21829L18.4935 9.74398C18.5214 10.0129 18.5349 10.2607 18.5349 10.5006C18.5349 10.7405 18.5214 10.9882 18.4935 11.2571Z"/>
<path d="M10.2495 6.33102C8.0616 6.33102 6.28149 8.11102 6.28149 10.299C6.28149 12.4871 8.06149 14.2671 10.2495 14.2671C12.4375 14.2671 14.2175 12.4871 14.2175 10.299C14.2175 8.11102 12.4374 6.33102 10.2495 6.33102ZM10.2495 12.5528C9.00681 12.5528 7.99572 11.5418 7.99572 10.299C7.99572 9.05634 9.00681 8.04525 10.2495 8.04525C11.4922 8.04525 12.5033 9.05634 12.5033 10.299C12.5033 11.5418 11.4922 12.5528 10.2495 12.5528Z"/>
</svg>
