<svg width="57" height="56" viewBox="0 0 57 56" fill="none" xmlns="http://www.w3.org/2000/svg">
<circle cx="28.5" cy="28" r="28" fill="#5C4BA7" fill-opacity="0.15"/>
<g clip-path="url(#clip0_28_198)">
<path d="M20.6561 24.3124L15.5465 21.3623C14.5592 23.3575 14.0001 25.6076 14 27.9999C14 30.3591 14.5651 32.613 15.5676 34.6259L20.6557 31.6883C20.1539 30.5583 19.8695 29.3119 19.8696 27.9999C19.8696 26.688 20.1542 25.442 20.6561 24.3124Z" fill="#5C4BA7"/>
<path d="M38.8394 16.6778C36.2032 14.3848 32.7585 12.9975 28.9896 13C23.8333 13.0034 19.231 15.6358 16.527 19.6694L21.6407 22.6219C23.3037 20.3535 25.979 18.8695 29.0002 18.8696C31.2025 18.8696 33.2214 19.6569 34.7983 20.9614C35.1843 21.2807 35.7485 21.2515 36.1027 20.8973L38.8878 18.1122C39.2894 17.7106 39.2679 17.0505 38.8394 16.6778Z" fill="#5C4BA7"/>
<path d="M43.8973 26.2644C43.8389 25.7679 43.4214 25.392 42.9215 25.392L30.6305 25.3913C30.0903 25.3913 29.6522 25.8293 29.6522 26.3696V30.2794C29.6522 30.8196 30.0902 31.2577 30.6305 31.2577H37.5181C36.8837 32.9088 35.7818 34.3282 34.3789 35.36L37.3044 40.4271C40.2491 38.4316 42.488 35.4146 43.4741 31.853C44.0103 29.9165 44.1068 28.044 43.8973 26.2644Z" fill="#5C4BA7"/>
<path d="M32.6873 36.3426C31.5591 36.8453 30.3136 37.1304 29.0002 37.1305C25.9757 37.1305 23.3018 35.6465 21.6401 33.379L16.5481 36.3188C19.2295 40.3127 23.7802 43 29.0001 43C31.3598 43 33.6057 42.4231 35.6147 41.413L32.6873 36.3426Z" fill="#5C4BA7"/>
</g>
<defs>
<clipPath id="clip0_28_198">
<rect width="30" height="30" fill="white" transform="translate(14 13)"/>
</clipPath>
</defs>
</svg>
