<svg width="20" height="20" viewBox="0 0 20 20" fill="none" xmlns="http://www.w3.org/2000/svg">
<path d="M7.26473 0H1.52268C0.683025 0 0 0.683025 0 1.52268V7.26473C0 8.10438 0.683025 8.78741 1.52268 8.78741H7.26473C8.10438 8.78741 8.78741 8.10438 8.78741 7.26473V1.52268C8.78727 0.683025 8.10438 0 7.26473 0Z" fill="#3E4954"/>
<path d="M18.4771 6.10352e-05H12.7351C11.8954 6.10352e-05 11.2124 0.683086 11.2124 1.52274V7.26479C11.2124 8.10445 11.8954 8.78747 12.7351 8.78747H18.4771C19.3168 8.78747 19.9998 8.10445 19.9998 7.26479V1.52274C19.9998 0.683086 19.3168 6.10352e-05 18.4771 6.10352e-05Z" fill="#3E4954"/>
<path d="M7.26473 11.2125H1.52268C0.683025 11.2125 0 11.8955 0 12.7351V18.4772C0 19.3168 0.683025 19.9999 1.52268 19.9999H7.26473C8.10438 19.9999 8.78741 19.3168 8.78741 18.4772V12.7351C8.78727 11.8955 8.10438 11.2125 7.26473 11.2125Z" fill="#3E4954"/>
<path d="M18.4771 11.2125H12.7351C11.8954 11.2125 11.2124 11.8955 11.2124 12.7352V18.4773C11.2124 19.3169 11.8954 19.9999 12.7351 19.9999H18.4771C19.3168 19.9999 19.9998 19.3168 19.9998 18.4772V12.7351C19.9998 11.8955 19.3168 11.2125 18.4771 11.2125Z" fill="#3E4954"/>
</svg>
