<svg width="22" height="20" viewBox="0 0 22 20" fill="none" xmlns="http://www.w3.org/2000/svg">
<path d="M19.871 0H2.12903C0.958064 0 0 0.964283 0 2.14285C0 3.32142 0.958064 4.2857 2.12903 4.2857H19.871C21.0419 4.2857 22 3.32142 22 2.14285C22 0.964283 21.0419 0 19.871 0Z" fill="#3E4954"/>
<path d="M19.871 7.85712H2.12903C0.958064 7.85712 0 8.8214 0 9.99997C0 11.1785 0.958064 12.1428 2.12903 12.1428H19.871C21.0419 12.1428 22 11.1785 22 9.99997C22 8.8214 21.0419 7.85712 19.871 7.85712Z" fill="#3E4954"/>
<path d="M19.871 15.7143H2.12903C0.958064 15.7143 0 16.6786 0 17.8571C0 19.0357 0.958064 20 2.12903 20H19.871C21.0419 20 22 19.0357 22 17.8571C22 16.6786 21.0419 15.7143 19.871 15.7143Z" fill="#3E4954"/>
</svg>
