<svg width="32" height="32" viewBox="0 0 32 32" fill="none" xmlns="http://www.w3.org/2000/svg">
<g clip-path="url(#clip0_61_520)">
<path d="M15.9999 21.3334C15.7266 21.3334 15.4653 21.2214 15.2773 21.024L8.27726 13.6907C7.67059 13.056 8.12126 12 8.99993 12H12.6666V4.33335C12.6666 3.41469 13.4146 2.66669 14.3333 2.66669H17.6666C18.5853 2.66669 19.3333 3.41469 19.3333 4.33335V12H22.9999C23.8786 12 24.3293 13.056 23.7226 13.6907L16.7226 21.024C16.5346 21.2214 16.2733 21.3334 15.9999 21.3334Z" fill="#5C4BA7"/>
<path d="M29.6667 29.3333H2.33333C1.04667 29.3333 0 28.2867 0 27V26.3333C0 25.0467 1.04667 24 2.33333 24H29.6667C30.9533 24 32 25.0467 32 26.3333V27C32 28.2867 30.9533 29.3333 29.6667 29.3333Z" fill="#5C4BA7"/>
</g>
<defs>
<clipPath id="clip0_61_520">
<rect width="32" height="32" fill="white"/>
</clipPath>
</defs>
</svg>
