<svg width="19" height="21" viewBox="0 0 19 21" fill="none" xmlns="http://www.w3.org/2000/svg">
<path d="M0.25 7.5V19.5C0.25 19.7652 0.355357 20.0196 0.542893 20.2071C0.730429 20.3946 0.984783 20.5 1.25 20.5H6.25C6.51521 20.5 6.76957 20.3946 6.95711 20.2071C7.14464 20.0196 7.25 19.7652 7.25 19.5V12.5H11.25V19.5C11.25 19.7652 11.3554 20.0196 11.5429 20.2071C11.7304 20.3946 11.9848 20.5 12.25 20.5H17.25C17.5152 20.5 17.7696 20.3946 17.9571 20.2071C18.1446 20.0196 18.25 19.7652 18.25 19.5V7.5C18.25 7.34475 18.2139 7.19164 18.1444 7.05279C18.075 6.91393 17.9742 6.79315 17.85 6.7L9.85 0.7C9.6769 0.570178 9.46637 0.5 9.25 0.5C9.03363 0.5 8.82309 0.570178 8.65 0.7L0.65 6.7C0.525804 6.79315 0.425 6.91393 0.355573 7.05279C0.286145 7.19164 0.25 7.34475 0.25 7.5ZM2.25 8L9.25 2.75L16.25 8V18.5H13.25V11.5C13.25 11.2348 13.1446 10.9804 12.9571 10.7929C12.7696 10.6054 12.5152 10.5 12.25 10.5H6.25C5.98478 10.5 5.73043 10.6054 5.54289 10.7929C5.35536 10.9804 5.25 11.2348 5.25 11.5V18.5H2.25V8Z"/>
</svg>
