<svg width="28" height="24" viewBox="0 0 28 24" fill="none" xmlns="http://www.w3.org/2000/svg">
<path d="M21.3918 8.8703L16.9059 4.3815C17.0655 4.00463 17.1535 3.59015 17.1535 3.15578C17.1535 1.41554 15.7389 0 14 0C12.2611 0 10.8463 1.41554 10.8463 3.15578C10.8463 3.59015 10.9345 4.00463 11.0941 4.3815L6.60822 8.8703H0V24H28V8.8703H21.3918ZM26.3594 22.3583H1.64062V10.512H26.3594V22.3583ZM14 1.6417C14.8342 1.6417 15.5129 2.32082 15.5129 3.15578C15.5129 3.99052 14.8342 4.66986 14 4.66986C13.1656 4.66986 12.4869 3.99052 12.4869 3.15578C12.4869 2.32082 13.1658 1.6417 14 1.6417ZM12.1137 5.6831C12.6401 6.07749 13.2933 6.31156 14 6.31156C14.7069 6.31156 15.3599 6.07749 15.8863 5.6831L19.0716 8.8703H8.92838L12.1137 5.6831Z" fill="#FEAA50"/>
<path d="M5.34814 15.4157C5.34814 15.2451 5.50452 15.1028 5.99521 15.1028C6.42886 15.1028 6.89093 15.2238 7.38162 15.4726L7.88641 14.2561C7.36731 13.9645 6.67773 13.8221 6.00952 13.8221C4.46674 13.8221 3.69171 14.5763 3.69171 15.5012C3.69171 17.358 6.44318 16.8528 6.44318 17.479C6.44318 17.6497 6.27249 17.7494 5.79611 17.7494C5.2486 17.7494 4.62311 17.5715 4.15378 17.294L3.61353 18.5176C4.11127 18.8235 4.95016 19.0298 5.78201 19.0298C7.3248 19.0298 8.09961 18.2615 8.09961 17.3509C8.09961 15.5153 5.34814 16.0134 5.34814 15.4157Z" fill="#FEAA50"/>
<path d="M11.2062 13.8221C9.58527 13.8221 8.39795 14.9179 8.39795 16.426C8.39795 17.9343 9.58527 19.0298 11.2062 19.0298C12.8272 19.0298 14.0145 17.9343 14.0145 16.426C14.0145 14.9179 12.8272 13.8221 11.2062 13.8221ZM11.2062 17.6709C10.5878 17.6709 10.0901 17.2015 10.0901 16.426C10.0901 15.6504 10.5878 15.181 11.2062 15.181C11.8249 15.181 12.3224 15.6504 12.3224 16.426C12.3224 17.2015 11.8249 17.6709 11.2062 17.6709Z" fill="#FEAA50"/>
<path d="M16.3037 13.9361H14.6257V18.9161H18.5502V17.6141H16.3037V13.9361Z" fill="#FEAA50"/>
<path d="M21.4652 13.9361H19.0122V18.9159H21.4652C23.1289 18.9159 24.2735 17.9698 24.2735 16.426C24.2735 14.8822 23.1289 13.9361 21.4652 13.9361ZM21.3941 17.607H20.6902V15.2451H21.3941C22.098 15.2451 22.5814 15.6648 22.5814 16.426C22.5814 17.1872 22.098 17.607 21.3941 17.607Z" fill="#FEAA50"/>
</svg>
