<svg width="26" height="26" viewBox="0 0 26 26" fill="none" xmlns="http://www.w3.org/2000/svg">
<path d="M25.9285 24.9161L23.4149 19.5298C23.3774 19.4493 23.326 19.376 23.2633 19.3132L16.9496 12.9996L19.4447 10.5045C21.2443 10.9358 23.1224 10.4176 24.4417 9.09833C26.0339 7.50619 26.4511 5.06879 25.4801 3.03328C25.3736 2.80999 25.1654 2.65237 24.9216 2.61047C24.6778 2.56858 24.4289 2.6477 24.2539 2.82259L22.1076 4.9688L21.0303 3.89153L23.1766 1.74526C23.3516 1.57037 23.4306 1.32139 23.3887 1.07764C23.3469 0.833891 23.1892 0.625587 22.966 0.519098C20.9304 -0.45194 18.493 -0.0346709 16.9008 1.55747C15.5815 2.87677 15.0634 4.75481 15.4947 6.55445L12.9996 9.04958L4.46973 0.519759C3.77671 -0.173253 2.64912 -0.173253 1.95611 0.519759L0.519759 1.95611C-0.173253 2.64912 -0.173253 3.77671 0.519759 4.46973L9.04958 12.9996L6.55445 15.4947C4.75481 15.0634 2.87672 15.5815 1.55747 16.9008C-0.0346709 18.4929 -0.45194 20.9303 0.519098 22.9659C0.625587 23.1892 0.833841 23.3467 1.07764 23.3886C1.32139 23.4305 1.57032 23.3515 1.74526 23.1765L3.89153 21.0302L4.9688 22.1075L2.82254 24.2538C2.64764 24.4287 2.56853 24.6777 2.61047 24.9214C2.65232 25.1652 2.80994 25.3735 3.03323 25.48C5.06884 26.451 7.50619 26.0338 9.09833 24.4416C10.4176 23.1223 10.9358 21.2442 10.5044 19.4447L12.9996 16.9495L19.3132 23.2632C19.376 23.326 19.4493 23.3773 19.5298 23.4148L24.9161 25.9285C25.2063 26.0639 25.5503 26.0033 25.7768 25.7768C26.0034 25.5504 26.064 25.2064 25.9285 24.9161ZM16.8887 7.31505C17.0929 7.11081 17.1641 6.80856 17.0724 6.53454C16.6091 5.15096 16.9562 3.65662 17.9781 2.63475C18.8373 1.77558 20.0415 1.39579 21.2063 1.56103L19.4144 3.35289C19.117 3.65037 19.117 4.13269 19.4144 4.43017L21.569 6.58466C21.8665 6.88214 22.3488 6.88214 22.6463 6.58466L24.4381 4.7929C24.6034 5.95767 24.2236 7.16189 23.3645 8.02106C22.3425 9.04298 20.8482 9.39002 19.4647 8.92674C19.1907 8.83503 18.8884 8.90618 18.6842 9.11047L15.8723 11.9223L14.0769 10.1269L16.8887 7.31505ZM1.59703 3.39245C1.49806 3.29348 1.49806 3.13235 1.59703 3.03338L3.03338 1.59703C3.13235 1.49806 3.29348 1.49806 3.39245 1.59703L4.64929 2.85387L2.85382 4.64929L1.59703 3.39245ZM3.93109 5.72656L5.72656 3.93114L6.44476 4.64934L4.64929 6.44481L3.93109 5.72656ZM9.11047 18.6842C8.90623 18.8884 8.83508 19.1906 8.92674 19.4647C9.39002 20.8482 9.04298 22.3426 8.02106 23.3645C7.16189 24.2236 5.95762 24.6034 4.7929 24.4381L6.58471 22.6463C6.88219 22.3488 6.88219 21.8665 6.58471 21.569L4.43017 19.4144C4.13269 19.117 3.65037 19.117 3.35289 19.4144L1.56108 21.2063C1.39584 20.0415 1.77563 18.8372 2.63475 17.9781C3.65662 16.9562 5.15091 16.6091 6.53459 17.0724C6.80856 17.1641 7.11076 17.093 7.31505 16.8887L10.1269 14.0768L11.9223 15.8722L9.11047 18.6842ZM5.72656 7.52198L7.52198 5.72651L21.6473 19.8519L19.8519 21.6473L5.72656 7.52198ZM21.1595 22.4942L22.4942 21.1595L23.6621 23.6621L21.1595 22.4942Z" fill="#FEAA50"/>
</svg>
