<svg width="22" height="22" viewBox="0 0 22 22" fill="none" xmlns="http://www.w3.org/2000/svg">
<path d="M5.50001 8.64282H0.785729C0.351776 8.64282 0 8.9946 0 9.42855V21.2143C0 21.6482 0.351776 22 0.785729 22H5.50001C5.93396 22 6.28574 21.6482 6.28574 21.2143V9.42855C6.28569 8.9946 5.93392 8.64282 5.50001 8.64282ZM4.71428 20.4285H1.57141V10.2143H4.71428V20.4285Z" fill="#FEAA50"/>
<path d="M13.3572 0H8.64291C8.20895 0 7.85718 0.351776 7.85718 0.785729V21.2143C7.85718 21.6482 8.20895 22 8.64291 22H13.3572C13.7911 22 14.1429 21.6482 14.1429 21.2143V0.785729C14.1429 0.351776 13.7911 0 13.3572 0ZM12.5715 20.4285H9.42864V1.57141H12.5715V20.4285Z" fill="#FEAA50"/>
<path d="M21.2144 6.28571H16.5001C16.0661 6.28571 15.7144 6.63748 15.7144 7.07143V21.2143C15.7144 21.6482 16.0661 22 16.5001 22H21.2144C21.6483 22 22.0001 21.6482 22.0001 21.2143V7.07143C22.0001 6.63748 21.6483 6.28571 21.2144 6.28571ZM20.4286 20.4286H17.2858V7.85716H20.4286V20.4286Z" fill="#FEAA50"/>
</svg>
