<svg width="22" height="28" viewBox="0 0 22 28" fill="none" xmlns="http://www.w3.org/2000/svg">
<path d="M19.8846 3.5H15.2308V2.625C15.2308 1.17759 14.092 0 12.6923 0H9.30769C7.908 0 6.76923 1.17759 6.76923 2.625V3.5H2.11538C0.948962 3.5 0 4.48131 0 5.6875V8.75C0 9.23322 0.378865 9.625 0.846154 9.625H1.30858L2.0396 25.4999C2.10417 26.9018 3.21792 28 4.57515 28H17.4248C18.7821 28 19.8959 26.9018 19.9604 25.4999L20.6914 9.625H21.1538C21.6211 9.625 22 9.23322 22 8.75V5.6875C22 4.48131 21.051 3.5 19.8846 3.5ZM8.46154 2.625C8.46154 2.14255 8.84114 1.75 9.30769 1.75H12.6923C13.1589 1.75 13.5385 2.14255 13.5385 2.625V3.5H8.46154V2.625ZM1.69231 5.6875C1.69231 5.44627 1.88211 5.25 2.11538 5.25H19.8846C20.1179 5.25 20.3077 5.44627 20.3077 5.6875V7.875C20.0469 7.875 2.7729 7.875 1.69231 7.875V5.6875ZM18.27 25.4166C18.2485 25.8839 17.8772 26.25 17.4248 26.25H4.57515C4.12273 26.25 3.75148 25.8839 3.73 25.4166L3.00279 9.625H18.9972L18.27 25.4166Z" fill="#FEAA50"/>
<path d="M11 24.5C11.4673 24.5 11.8461 24.1082 11.8461 23.625V12.25C11.8461 11.7668 11.4673 11.375 11 11.375C10.5327 11.375 10.1538 11.7668 10.1538 12.25V23.625C10.1538 24.1082 10.5326 24.5 11 24.5Z" fill="#FEAA50"/>
<path d="M15.2309 24.5C15.6982 24.5 16.0771 24.1082 16.0771 23.625V12.25C16.0771 11.7668 15.6982 11.375 15.2309 11.375C14.7636 11.375 14.3848 11.7668 14.3848 12.25V23.625C14.3848 24.1082 14.7636 24.5 15.2309 24.5Z" fill="#FEAA50"/>
<path d="M6.76925 24.5C7.23654 24.5 7.6154 24.1082 7.6154 23.625V12.25C7.6154 11.7668 7.23654 11.375 6.76925 11.375C6.30196 11.375 5.9231 11.7668 5.9231 12.25V23.625C5.9231 24.1082 6.30191 24.5 6.76925 24.5Z" fill="#FEAA50"/>
</svg>
