<svg width="21" height="20" viewBox="0 0 21 20" fill="none" xmlns="http://www.w3.org/2000/svg">
<path d="M10.5003 2.30981C6.08467 2.30981 2.49219 6.07309 2.49219 10.6985C2.49219 15.3242 6.08471 19.0875 10.5003 19.0875C14.9161 19.0875 18.5083 15.3242 18.5083 10.6985C18.5083 6.07309 14.9159 2.30981 10.5003 2.30981ZM10.5003 17.5671C6.88501 17.5671 3.94378 14.4859 3.94378 10.6988C3.94378 6.91173 6.88497 3.8307 10.5003 3.8307C14.1156 3.8307 17.0568 6.91173 17.0568 10.6988C17.0568 14.4861 14.1155 17.5671 10.5003 17.5671Z" fill="#3E4954"/>
<path d="M12.7259 10.4452H10.7905V7.50537C10.7905 7.08543 10.4656 6.74506 10.0647 6.74506C9.66379 6.74506 9.33887 7.08543 9.33887 7.50537V11.2055C9.33887 11.6255 9.66379 11.9658 10.0647 11.9658H12.726C13.1269 11.9658 13.4518 11.6255 13.4518 11.2055C13.4518 10.7856 13.1268 10.4452 12.7259 10.4452Z" fill="#3E4954"/>
<path d="M6.38862 16.1402C6.09055 15.8591 5.63159 15.8847 5.36355 16.1967L3.18611 18.7311C2.91778 19.043 2.94223 19.5238 3.24004 19.8046C3.37868 19.9357 3.55238 20 3.72538 20C3.92402 20 4.12192 19.9151 4.26515 19.7481L6.44259 17.2138C6.71088 16.9018 6.68643 16.421 6.38862 16.1402Z" fill="#3E4954"/>
<path d="M17.8139 18.7313L15.6365 16.1969C15.3689 15.8847 14.9097 15.8593 14.6116 16.1404C14.3136 16.4212 14.2896 16.902 14.5577 17.214L16.7351 19.7483C16.8781 19.9151 17.076 20 17.2746 20C17.4474 20 17.6211 19.9356 17.76 19.8048C18.058 19.524 18.082 19.0432 17.8139 18.7313Z" fill="#3E4954"/>
<path d="M6.26574 1.10828C4.82354 -0.371007 2.49881 -0.36873 1.08373 1.11387C0.37965 1.85111 -0.00503616 2.82659 4.97926e-05 3.86059C0.00538184 4.88217 0.391996 5.83866 1.08902 6.55386C1.23032 6.69857 1.41345 6.77079 1.59683 6.77079C1.78263 6.77079 1.96844 6.69629 2.10998 6.54828L6.27127 2.1892C6.40823 2.04553 6.48468 1.85059 6.48369 1.64763C6.48275 1.44457 6.40433 1.25046 6.26574 1.10828ZM1.67644 4.85175C1.53104 4.54485 1.45336 4.20526 1.45168 3.85247C1.44852 3.22801 1.68223 2.63699 2.10998 2.1889C2.53675 1.74211 3.10096 1.51882 3.66829 1.51882C3.99999 1.51882 4.33291 1.59508 4.63967 1.74765L1.67644 4.85175Z" fill="#3E4954"/>
<path d="M19.9164 1.11341C18.501 -0.368934 16.1763 -0.371469 14.7341 1.10782C14.5957 1.24999 14.5171 1.44415 14.5161 1.64712C14.5151 1.85013 14.5918 2.04528 14.7288 2.1887L18.8901 6.54777C19.0316 6.6963 19.2174 6.77054 19.4032 6.77054C19.5866 6.77054 19.77 6.69832 19.911 6.5531C20.6083 5.83816 20.9949 4.88171 21 3.86008C21.0051 2.82638 20.6202 1.8509 19.9164 1.11341ZM19.3237 4.85155L16.3604 1.74749C17.1922 1.33386 18.2139 1.48063 18.8901 2.18895C19.3179 2.63704 19.5516 3.22776 19.5484 3.85252C19.5467 4.20505 19.4691 4.5449 19.3237 4.85155Z" fill="#3E4954"/>
</svg>
