<svg width="22" height="30" viewBox="0 0 22 30" fill="none" xmlns="http://www.w3.org/2000/svg">
<path d="M18.8365 13.1988C17.8308 11.9136 16.6811 10.8898 15.4191 10.1535C15.6258 9.89947 15.7889 9.60164 15.8942 9.26971C16.3075 7.96254 15.7038 6.4098 14.1631 5.90396L16.323 1.99195C16.5955 1.49824 16.3507 0.869414 15.8252 0.710742C14.2636 0.239121 12.6402 0 11 0C9.35982 0 7.73644 0.239121 6.17478 0.710742C5.6487 0.86959 5.40484 1.49883 5.67702 1.99195L7.83691 5.90402C6.30227 6.40729 5.691 7.95773 6.10602 9.27041C6.21099 9.60146 6.37402 9.89912 6.58133 10.1532C5.31915 10.8895 4.16939 11.9135 3.1636 13.1988C1.15308 15.7679 0 19.0086 0 22.0898C0 28.4819 4.91034 30 11 30C17.0939 30 22 28.4793 22 22.0898C22 19.0086 20.8469 15.7679 18.8365 13.1988ZM7.69977 2.12215C8.7793 1.8801 9.88522 1.75781 11 1.75781C12.1148 1.75781 13.2207 1.8801 14.3002 2.12215L12.4368 5.49727C11.4824 5.35887 10.5179 5.35893 9.56323 5.49732L7.69977 2.12215ZM8.25259 7.61109C9.70883 7.11492 11.2324 7.02088 12.7135 7.32844C12.7153 7.32879 12.7171 7.32914 12.7188 7.32949C13.0641 7.40144 13.407 7.49508 13.7462 7.61068C14.1897 7.7625 14.432 8.26072 14.2866 8.72051C14.181 9.0535 13.902 9.28283 13.5739 9.31998C12.7302 9.04559 11.8697 8.90625 11 8.90625C10.1321 8.90625 9.27323 9.045 8.43119 9.31828C8.09797 9.28266 7.81835 9.05168 7.71359 8.72133C7.568 8.26072 7.81034 7.76244 8.25259 7.61109ZM11 28.2539C4.38894 28.2539 1.69231 26.4598 1.69231 22.0898C1.69231 19.4448 2.73325 16.5356 4.47672 14.3075C6.31541 11.958 8.63207 10.6641 11 10.6641C13.6065 10.6641 15.8863 12.2157 17.5233 14.3075C19.2668 16.5356 20.3077 19.4448 20.3077 22.0898C20.3077 26.4598 17.6111 28.2539 11 28.2539Z" fill="#FEAA50"/>
</svg>
