<svg width="22" height="20" viewBox="0 0 22 20" fill="none" xmlns="http://www.w3.org/2000/svg">
<path d="M11.0002 14.0544C10.3852 14.0544 9.86963 14.5671 9.86963 15.1788C9.86963 15.7904 10.3852 16.3032 11.0002 16.3032C11.5927 16.3032 12.1308 15.7904 12.1037 15.2058C12.1308 14.5627 11.6198 14.0544 11.0002 14.0544Z" fill="#3E4954"/>
<path d="M21.4646 18.0391C22.1747 16.8203 22.1792 15.3677 21.4737 14.1534L14.3916 1.95638C13.6906 0.728581 12.4243 0 11.0042 0C9.5842 0 8.31792 0.733078 7.61694 1.95188L0.525755 14.1624C-0.179745 15.3902 -0.175223 16.8518 0.539322 18.0706C1.24482 19.2759 2.50658 20 3.91758 20H18.0638C19.4793 20 20.7501 19.2669 21.4646 18.0391ZM19.927 17.1576C19.5336 17.8322 18.8371 18.2325 18.0592 18.2325H3.91306C3.14425 18.2325 2.45231 17.8412 2.06791 17.1801C1.67898 16.51 1.67445 15.7095 2.06338 15.0349L9.15457 2.82887C9.53897 2.15876 10.2264 1.76299 11.0042 1.76299C11.7776 1.76299 12.4695 2.16326 12.8539 2.83337L19.9406 15.0394C20.3205 15.696 20.3159 16.4875 19.927 17.1576Z" fill="#3E4954"/>
<path d="M10.7193 6.1615C10.1811 6.31442 9.84644 6.80014 9.84644 7.3893C9.87357 7.74459 9.89618 8.10439 9.92332 8.45968C10.0002 9.8134 10.0771 11.1401 10.154 12.4939C10.1811 12.9526 10.5384 13.2854 10.9997 13.2854C11.4609 13.2854 11.8227 12.9301 11.8454 12.4669C11.8454 12.188 11.8454 11.9317 11.8725 11.6483C11.9222 10.7803 11.9765 9.91235 12.0262 9.04434C12.0534 8.48217 12.1031 7.91999 12.1303 7.35781C12.1303 7.15543 12.1031 6.97553 12.0262 6.79564C11.7956 6.29193 11.2574 6.03558 10.7193 6.1615Z" fill="#3E4954"/>
</svg>
