<svg width="26" height="26" viewBox="0 0 26 26" fill="none" xmlns="http://www.w3.org/2000/svg">
<path d="M13 26C5.83171 26 0 20.1683 0 13C0 5.83171 5.83171 0 13 0C20.1683 0 26 5.83171 26 13C26 20.1683 20.1683 26 13 26ZM13 1.85709C6.85587 1.85709 1.85709 6.85587 1.85709 13C1.85709 19.1441 6.85587 24.1429 13 24.1429C19.1441 24.1429 24.1429 19.1441 24.1429 13C24.1429 6.85587 19.1441 1.85709 13 1.85709Z" fill="#FEAA50"/>
<path d="M17.643 18.5715C17.4054 18.5715 17.1678 18.4808 16.9864 18.2993L7.70082 9.01369C7.33801 8.65088 7.33801 8.06332 7.70082 7.70071C8.06343 7.3381 8.65118 7.3379 9.01379 7.70071L18.2994 16.9863C18.6622 17.3491 18.6622 17.9367 18.2994 18.2993C18.1181 18.4808 17.8807 18.5715 17.643 18.5715Z" fill="#FEAA50"/>
<path d="M8.3572 18.5715C8.11956 18.5715 7.88212 18.4808 7.70082 18.2993C7.33801 17.9367 7.33801 17.349 7.70082 16.9864L16.9864 7.70073C17.3493 7.33792 17.9368 7.33792 18.2994 7.70073C18.662 8.06334 18.6622 8.65109 18.2994 9.0137L9.01379 18.2993C8.83249 18.4808 8.59484 18.5715 8.3572 18.5715Z" fill="#FEAA50"/>
</svg>
