<svg width="24" height="22" viewBox="0 0 24 22" fill="none" xmlns="http://www.w3.org/2000/svg">
<path d="M21.6 4.07049e-06C20.2772 -0.00243083 19.2029 1.08783 19.2005 2.43519C19.1993 3.07022 19.4414 3.68071 19.8752 4.13684L15.4904 13.0672C15.3943 13.051 15.2973 13.0409 15.2 13.0371C14.8902 13.0377 14.5834 13.0997 14.2968 13.2196L10.8928 9.32074C11.0915 8.9629 11.1973 8.55933 11.2 8.14822C11.2 6.79818 10.1255 5.70377 8.80003 5.70377C7.47455 5.70377 6.40003 6.79818 6.40003 8.14822C6.40237 8.73173 6.61148 9.29476 6.98883 9.73386L2.82881 17.1551C2.68744 17.1274 2.54395 17.1127 2.4 17.1111C1.07452 17.1111 0 18.2055 0 19.5556C0 20.9056 1.07452 22 2.4 22C3.72548 22 4.8 20.9056 4.8 19.5556C4.79766 18.972 4.58855 18.409 4.2112 17.9699L8.37122 10.5486C8.8178 10.6384 9.28055 10.5902 9.70003 10.4101L13.104 14.309C12.9065 14.6671 12.8018 15.0707 12.8001 15.4815C12.7961 16.8315 13.8673 17.9292 15.1928 17.9333C16.5183 17.9374 17.596 16.8463 17.6 15.4963C17.6019 14.8594 17.3596 14.2469 16.9248 13.7892L21.3096 4.85877C21.4057 4.875 21.5027 4.88507 21.6 4.88889C22.9255 4.88889 24 3.79448 24 2.44445C24 1.09442 22.9255 4.07049e-06 21.6 4.07049e-06ZM2.4 20.3704C1.95816 20.3704 1.59998 20.0056 1.59998 19.5556C1.59998 19.1055 1.95816 18.7407 2.4 18.7407C2.84184 18.7407 3.20002 19.1055 3.20002 19.5556C3.20002 20.0056 2.84184 20.3704 2.4 20.3704ZM8.79998 8.96295C8.35814 8.96295 7.99997 8.59815 7.99997 8.14812C7.99997 7.69809 8.35814 7.33329 8.79998 7.33329C9.24183 7.33329 9.6 7.69809 9.6 8.14812C9.6 8.59815 9.24183 8.96295 8.79998 8.96295ZM15.2 16.2963C14.7582 16.2963 14.4 15.9315 14.4 15.4815C14.4 15.0314 14.7582 14.6666 15.2 14.6666C15.6419 14.6666 16 15.0314 16 15.4815C16 15.9315 15.6418 16.2963 15.2 16.2963ZM21.6 3.25928C21.1582 3.25928 20.8 2.89447 20.8 2.44445C20.8 1.99442 21.1582 1.62962 21.6 1.62962C22.0418 1.62962 22.4 1.99442 22.4 2.44445C22.4 2.89447 22.0418 3.25928 21.6 3.25928Z" fill="#5C4BA7"/>
</svg>
