<svg width="24" height="32" viewBox="0 0 24 32" fill="none" xmlns="http://www.w3.org/2000/svg">
<path d="M19.5763 10.1602L18.599 9.34738L18.1439 10.5511C18.1352 10.5741 17.2609 12.8402 15.9183 12.4274C15.6211 12.336 15.4217 12.1597 15.291 11.8724C14.9576 11.1403 15.0994 9.81507 15.6523 8.4963C16.4167 6.67276 16.082 4.76197 14.6842 2.97038C13.701 1.71022 12.5196 0.947328 12.4698 0.915431L11.0385 0L11.0704 1.72923C11.0709 1.76013 11.1017 4.83233 8.88276 5.9589C7.52323 6.64912 6.55001 7.7907 6.14229 9.17339C5.76092 10.4669 5.92107 11.8812 6.58174 13.0535C6.85219 13.5334 6.93413 13.9404 6.82541 14.2633C6.67002 14.7245 6.16804 14.962 6.01783 15.0238C4.43147 15.6769 3.39303 13.4964 3.35105 13.4064L2.62742 11.8231L1.74065 13.3167C0.601856 15.2346 0 17.4418 0 19.6996C0 26.4327 5.3053 31.9186 11.8559 31.9981C11.9037 31.9994 11.9517 32 11.9998 32H11.9998H12C18.6168 32 24 26.482 24 19.6996C24 15.9856 22.3877 12.5086 19.5763 10.1602ZM8.24699 26.2768L8.24693 26.2652C8.23796 25.5186 8.37669 24.7178 8.66026 23.8765L10.9158 24.5523L10.9386 23.3255C10.9734 21.4464 12.007 20.2928 12.8335 19.6688C13.0454 20.6139 13.3757 21.4567 13.832 22.2211C14.3522 23.0912 14.8448 23.8289 15.2992 24.4956C15.5912 24.9248 15.7567 25.5728 15.7534 26.2733V26.2778C15.7534 27.305 15.363 28.271 14.654 28.9978C13.9457 29.7238 13.0031 30.1237 11.9998 30.1237C11.9997 30.1237 11.9997 30.1237 11.9995 30.1237C9.93109 30.1235 8.24772 28.3986 8.24699 26.2768ZM17.0369 28.7527C17.3942 27.9905 17.5835 27.1502 17.5837 26.2798C17.5884 25.1865 17.3103 24.1717 16.8001 23.4216C16.2933 22.6779 15.86 22.0224 15.3928 21.241C14.872 20.3685 14.5588 19.3402 14.4355 18.0974L14.3148 16.8827L13.2009 17.3151C13.0965 17.3556 12.1529 17.737 11.1857 18.6365C10.16 19.5902 9.49792 20.7697 9.23546 22.0941L7.59956 21.6039L7.27663 22.3589C6.69204 23.7257 6.40274 25.0457 6.41671 26.2826C6.41756 27.1679 6.6156 28.0068 6.96805 28.7556C3.90154 26.9583 1.83022 23.5723 1.83022 19.6995C1.83022 18.2907 2.10647 16.9054 2.63694 15.6247C2.71827 15.7169 2.80478 15.809 2.89648 15.8996C4.01746 17.0057 5.36814 17.313 6.69967 16.7649C7.59919 16.3947 8.27554 15.7061 8.55533 14.8757C8.75452 14.2845 8.84878 13.3256 8.16645 12.1149C7.75177 11.379 7.65507 10.5271 7.89417 9.71619C8.15401 8.8351 8.79351 8.09785 9.69498 7.64016C11.5921 6.67695 12.3677 4.86873 12.684 3.49705C12.8836 3.69831 13.0887 3.92628 13.2815 4.17695C14.2219 5.39915 14.4537 6.60315 13.9706 7.75555C13.198 9.59867 13.0715 11.4344 13.6324 12.6661C13.9847 13.44 14.5934 13.9788 15.3923 14.2246C16.6483 14.6109 17.8766 14.1612 18.8511 12.9585C19.0037 12.7703 19.1384 12.5786 19.2557 12.3944C21.1197 14.3361 22.1697 16.9407 22.1697 19.6995C22.1697 23.5703 20.1007 26.9548 17.0369 28.7527Z" fill="#FEAA50"/>
</svg>
