<svg width="57" height="56" viewBox="0 0 57 56" fill="none" xmlns="http://www.w3.org/2000/svg">
<circle cx="28.5" cy="28" r="28" fill="#5C4BA7" fill-opacity="0.15"/>
<path d="M43.5367 15.7118C43.1703 15.2527 42.6214 15 41.9911 15C41.6484 15 41.2854 15.0739 40.9124 15.2199L15.518 25.1499C14.1703 25.6768 13.9888 26.4673 14.0005 26.8917C14.0122 27.3161 14.2372 28.095 15.6118 28.543C15.6201 28.5456 15.6283 28.5482 15.6365 28.5505L20.904 30.0946L23.7527 38.439C24.1411 39.5766 25.0129 40.2833 26.0282 40.2833C26.6684 40.2833 27.2981 40.0085 27.8492 39.4889L31.1073 36.4159L35.833 40.3137C35.8335 40.3142 35.8342 40.3144 35.8346 40.3149L35.8795 40.352C35.8836 40.3552 35.888 40.3588 35.8921 40.362C36.4174 40.7794 36.9907 40.9998 37.5508 41H37.551C38.6453 41 39.5166 40.1703 39.7705 38.8864L43.9313 17.8405C44.0984 16.9957 43.9583 16.2398 43.5367 15.7118V15.7118ZM22.6662 29.8013L32.8287 24.4831L26.5009 31.3708C26.3972 31.4836 26.3237 31.6217 26.2875 31.772L25.0674 36.8349L22.6662 29.8013ZM26.6583 38.1642C26.6162 38.2039 26.5739 38.2393 26.5315 38.2718L27.6636 33.5752L29.7228 35.2738L26.6583 38.1642ZM42.2085 17.4829L38.0477 38.529C38.0076 38.7304 37.8797 39.1991 37.5508 39.1991C37.3883 39.1991 37.1841 39.1084 36.9752 38.9436L31.6202 34.5268C31.6196 34.5261 31.6186 34.5254 31.6177 34.525L28.4315 31.8967L37.5824 21.9362C37.8753 21.6173 37.9019 21.129 37.6453 20.7787C37.3885 20.4284 36.9232 20.3182 36.5426 20.5175L21.4918 28.3939L16.1527 26.8291L41.5393 16.9022C41.7537 16.8182 41.9034 16.8006 41.9911 16.8006C42.0449 16.8006 42.1405 16.8072 42.176 16.852C42.2227 16.9104 42.2822 17.1094 42.2085 17.4829V17.4829Z" fill="#5C4BA7"/>
</svg>
