<svg width="21" height="21" viewBox="0 0 21 21" fill="none" xmlns="http://www.w3.org/2000/svg">
<path d="M19.1974 18.3948H2.35526V1.55269C2.35526 1.27352 2.24436 1.00578 2.04695 0.80837C1.84955 0.610963 1.58181 0.500061 1.30263 0.500061C1.02346 0.500061 0.755715 0.610963 0.558309 0.80837C0.360902 1.00578 0.25 1.27352 0.25 1.55269V19.4474C0.25 19.7266 0.360902 19.9943 0.558309 20.1918C0.755715 20.3892 1.02346 20.5001 1.30263 20.5001H19.1974C19.4765 20.5001 19.7443 20.3892 19.9417 20.1918C20.1391 19.9943 20.25 19.7266 20.25 19.4474C20.25 19.1683 20.1391 18.9005 19.9417 18.7031C19.7443 18.5057 19.4765 18.3948 19.1974 18.3948Z"/>
<path d="M4.46045 9.97371V15.2369C4.46045 15.516 4.57135 15.7838 4.76876 15.9812C4.96617 16.1786 5.23391 16.2895 5.51308 16.2895C5.79226 16.2895 6.06 16.1786 6.2574 15.9812C6.45481 15.7838 6.56571 15.516 6.56571 15.2369V9.97371C6.56571 9.69454 6.45481 9.4268 6.2574 9.22939C6.06 9.03198 5.79226 8.92108 5.51308 8.92108C5.23391 8.92108 4.96617 9.03198 4.76876 9.22939C4.57135 9.4268 4.46045 9.69454 4.46045 9.97371Z"/>
<path d="M8.67114 4.71059V15.2369C8.67114 15.5161 8.78204 15.7838 8.97945 15.9812C9.17686 16.1786 9.4446 16.2895 9.72377 16.2895C10.003 16.2895 10.2707 16.1786 10.4681 15.9812C10.6655 15.7838 10.7764 15.5161 10.7764 15.2369V4.71059C10.7764 4.43142 10.6655 4.16367 10.4681 3.96627C10.2707 3.76886 10.003 3.65796 9.72377 3.65796C9.4446 3.65796 9.17686 3.76886 8.97945 3.96627C8.78204 4.16367 8.67114 4.43142 8.67114 4.71059Z"/>
<path d="M12.8816 6.81581V15.2369C12.8816 15.516 12.9925 15.7838 13.1899 15.9812C13.3873 16.1786 13.655 16.2895 13.9342 16.2895C14.2134 16.2895 14.4811 16.1786 14.6785 15.9812C14.876 15.7838 14.9869 15.516 14.9869 15.2369V6.81581C14.9869 6.53664 14.876 6.2689 14.6785 6.07149C14.4811 5.87409 14.2134 5.76318 13.9342 5.76318C13.655 5.76318 13.3873 5.87409 13.1899 6.07149C12.9925 6.2689 12.8816 6.53664 12.8816 6.81581Z"/>
<path d="M17.092 1.55269V15.2369C17.092 15.5161 17.2029 15.7838 17.4003 15.9812C17.5977 16.1786 17.8654 16.2895 18.1446 16.2895C18.4238 16.2895 18.6915 16.1786 18.8889 15.9812C19.0863 15.7838 19.1972 15.5161 19.1972 15.2369V1.55269C19.1972 1.27352 19.0863 1.00578 18.8889 0.80837C18.6915 0.610963 18.4238 0.500061 18.1446 0.500061C17.8654 0.500061 17.5977 0.610963 17.4003 0.80837C17.2029 1.00578 17.092 1.27352 17.092 1.55269Z"/>
</svg>
