<svg width="57" height="56" viewBox="0 0 57 56" fill="none" xmlns="http://www.w3.org/2000/svg">
<circle cx="28.5" cy="28" r="28" fill="#5C4BA7" fill-opacity="0.15"/>
<g clip-path="url(#clip0_109_995)">
<path d="M43.2281 25.1062L32.5914 14.4579C30.6481 12.5146 27.4691 12.5146 25.5288 14.4548L14.7723 25.1059C14.2743 25.6039 14 26.266 14 26.9703V40.3633C14 41.8173 15.1853 43 16.6367 43H41.3633C42.817 43 44 41.815 44 40.3633V26.9703C44 26.266 43.7257 25.6039 43.2281 25.1062ZM26.7687 15.7008C27.4001 15.0694 28.2294 14.7538 29.0587 14.7538C29.8879 14.7538 30.7171 15.0694 31.3481 15.7005L41.8782 26.2421L35.2008 32.9195L32.166 29.8703C31.336 29.0402 30.2324 28.5831 29.0586 28.5831C27.8848 28.5831 26.7812 29.0402 25.953 29.8685L22.8958 32.9082L16.1262 26.2389L26.7687 15.7008ZM15.7578 40.0049V28.3435L21.6491 34.1476L15.7578 40.0049ZM17.0065 41.2422C18.0352 40.2194 26.1005 32.2006 27.1941 31.1133C27.6922 30.6152 28.3543 30.341 29.0586 30.341C29.7629 30.341 30.425 30.6153 30.9215 31.1118L41.0039 41.2422H17.0065ZM42.2422 39.9945L36.4408 34.1655L42.2422 28.364V39.9945Z" fill="#5C4BA7"/>
</g>
<defs>
<clipPath id="clip0_109_995">
<rect width="30" height="30" fill="white" transform="translate(14 13)"/>
</clipPath>
</defs>
</svg>
