<svg width="21" height="19" viewBox="0 0 21 19" fill="none" xmlns="http://www.w3.org/2000/svg">
<path d="M3.25 18.5H17.25C18.0456 18.5 18.8087 18.1839 19.3713 17.6213C19.9339 17.0587 20.25 16.2956 20.25 15.5V3.5C20.25 2.70435 19.9339 1.94129 19.3713 1.37868C18.8087 0.816071 18.0456 0.5 17.25 0.5H3.25C2.45435 0.5 1.69129 0.816071 1.12868 1.37868C0.566071 1.94129 0.25 2.70435 0.25 3.5V15.5C0.25 16.2956 0.566071 17.0587 1.12868 17.6213C1.69129 18.1839 2.45435 18.5 3.25 18.5ZM18.25 10.5H13.25V8.5H18.25V10.5ZM2.25 3.5C2.25 3.23478 2.35536 2.98043 2.54289 2.79289C2.73043 2.60536 2.98478 2.5 3.25 2.5H17.25C17.5152 2.5 17.7696 2.60536 17.9571 2.79289C18.1446 2.98043 18.25 3.23478 18.25 3.5V6.5H12.25C11.9848 6.5 11.7304 6.60536 11.5429 6.79289C11.3554 6.98043 11.25 7.23478 11.25 7.5V11.5C11.25 11.7652 11.3554 12.0196 11.5429 12.2071C11.7304 12.3946 11.9848 12.5 12.25 12.5H18.25V15.5C18.25 15.7652 18.1446 16.0196 17.9571 16.2071C17.7696 16.3946 17.5152 16.5 17.25 16.5H3.25C2.98478 16.5 2.73043 16.3946 2.54289 16.2071C2.35536 16.0196 2.25 15.7652 2.25 15.5V3.5Z"/>
</svg>
