<svg width="28" height="28" viewBox="0 0 28 28" fill="none" xmlns="http://www.w3.org/2000/svg">
<path d="M26.9023 7.71395C27.5063 7.71395 27.9959 7.22435 27.9959 6.62036V5.47209C27.9959 2.45478 25.5411 0 22.5238 0C22.5238 0 5.38135 0.00256993 5.33908 0.00754576C3.89615 0.0579601 2.51008 0.67715 1.51098 1.72404C0.486889 2.79707 -0.0470008 4.19271 0.00324959 5.66112C0.00117177 5.68895 7.81824e-05 21.4343 7.81824e-05 21.4343C7.81824e-05 25.0546 2.94544 28 6.56576 28H22.5238C25.5411 28 27.9959 25.5452 27.9959 22.5279V14.225C27.9959 11.2076 25.5411 8.75286 22.5238 8.75286H5.46796C3.71215 8.75286 2.27266 7.38051 2.19081 5.62859C2.1492 4.73775 2.46967 3.88738 3.09313 3.23407C3.7256 2.57135 4.61387 2.19133 5.53008 2.19133C5.56239 2.19133 22.5237 2.18718 22.5237 2.18718C24.335 2.18718 25.8086 3.66078 25.8086 5.47209V6.62036C25.8087 7.22435 26.2983 7.71395 26.9023 7.71395ZM5.46796 10.94H22.5238C24.3351 10.94 25.8087 12.4136 25.8087 14.225V22.5279C25.8087 24.3392 24.3351 25.8128 22.5238 25.8128H6.56576C4.15145 25.8128 2.18725 23.8486 2.18725 21.4343V9.85087C3.10193 10.536 4.23844 10.94 5.46796 10.94ZM23.6216 18.3764C23.6216 19.1314 23.0095 19.7434 22.2546 19.7434C20.4413 19.6714 20.4418 17.0812 22.2546 17.0094C23.0095 17.0094 23.6216 17.6215 23.6216 18.3764ZM23.6216 5.47209C23.6216 4.86811 23.132 4.37851 22.528 4.37851H5.46802C4.01705 4.43625 4.01814 6.50843 5.46802 6.56568H22.528C23.1319 6.56568 23.6216 6.07608 23.6216 5.47209Z" fill="#5C4BA7"/>
</svg>
