<svg width="33" height="34" viewBox="0 0 33 34" fill="none" xmlns="http://www.w3.org/2000/svg">
<g clip-path="url(#clip0_2_2421)">
<path d="M32.1766 13.9133L20.8309 2.55506C18.758 0.482188 15.367 0.482188 13.2974 2.55181L1.82375 13.9129C1.29256 14.4441 1 15.1504 1 15.9016V30.1875C1 31.7385 2.26431 33 3.8125 33H30.1875C31.7381 33 33 31.736 33 30.1875V15.9016C33 15.1504 32.7074 14.4441 32.1766 13.9133ZM14.6199 3.88088C15.2934 3.20738 16.178 2.87069 17.0626 2.87069C17.9471 2.87069 18.8316 3.20738 19.5047 3.8805L30.7367 15.1249L23.6142 22.2475L20.3771 18.9949C19.4917 18.1096 18.3146 17.622 17.0625 17.622C15.8104 17.622 14.6333 18.1096 13.7499 18.9931L10.4888 22.2354L3.268 15.1215L14.6199 3.88088ZM2.875 29.8053V17.3664L9.159 23.5574L2.875 29.8053ZM4.20694 31.125C5.30419 30.034 13.9072 21.4806 15.0737 20.3208C15.605 19.7896 16.3112 19.4971 17.0625 19.4971C17.8137 19.4971 18.52 19.7896 19.0496 20.3193L29.8041 31.125H4.20694ZM31.125 29.7941L24.9368 23.5765L31.125 17.3883V29.7941Z" fill="#FEAA50"/>
</g>
<defs>
<clipPath id="clip0_2_2421">
<rect width="31.8584" height="33.3333" fill="white" transform="translate(0.654892 0.666626)"/>
</clipPath>
</defs>
</svg>
