<svg width="33" height="32" viewBox="0 0 33 32" fill="none" xmlns="http://www.w3.org/2000/svg">
<path d="M25.3749 19.8229C24.7188 19.1407 23.9275 18.776 23.0888 18.776C22.2568 18.776 21.4587 19.134 20.7756 19.8161L18.6383 21.9436C18.4624 21.849 18.2866 21.7612 18.1175 21.6734C17.874 21.5518 17.644 21.437 17.4479 21.3155C15.4458 20.0457 13.6264 18.3911 11.8814 16.2501C11.0359 15.183 10.4678 14.2847 10.0552 13.373C10.6098 12.8664 11.1239 12.3396 11.6244 11.8331C11.8138 11.644 12.0031 11.4481 12.1925 11.259C13.6129 9.84072 13.6129 8.00368 12.1925 6.58538L10.346 4.74159C10.1364 4.53222 9.91994 4.3161 9.71703 4.09997C9.31121 3.68124 8.8851 3.24899 8.44546 2.84376C7.78939 2.1954 7.00481 1.85095 6.17964 1.85095C5.35448 1.85095 4.55637 2.1954 3.88 2.84376C3.87324 2.85052 3.87324 2.85052 3.86647 2.85727L1.56683 5.17383C0.701085 6.03832 0.207339 7.09192 0.0991205 8.31436C-0.0632071 10.2865 0.518467 12.1235 0.964868 13.3257C2.06058 16.2771 3.69738 19.0124 6.13906 21.9436C9.10154 25.4758 12.666 28.2651 16.7377 30.2305C18.2933 30.9667 20.3698 31.8379 22.6897 31.9865C22.8317 31.9933 22.9805 32 23.1158 32C24.6782 32 25.9904 31.4394 27.0184 30.3251C27.0252 30.3116 27.0387 30.3048 27.0455 30.2913C27.3972 29.8658 27.803 29.4808 28.2291 29.0689C28.52 28.7919 28.8176 28.5015 29.1084 28.1976C29.778 27.502 30.1297 26.6915 30.1297 25.8608C30.1297 25.0233 29.7713 24.2196 29.0881 23.5442L25.3749 19.8229ZM27.7963 26.9346C27.7895 26.9346 27.7895 26.9414 27.7963 26.9346C27.5325 27.2183 27.2619 27.475 26.9711 27.7586C26.5315 28.1773 26.0851 28.6163 25.6657 29.1094C24.9826 29.8388 24.1777 30.1832 23.1226 30.1832C23.0211 30.1832 22.9129 30.1832 22.8115 30.1765C20.8027 30.0482 18.9359 29.2647 17.5358 28.5961C13.7076 26.7455 10.3461 24.1183 7.55266 20.7887C5.24626 18.0128 3.70415 15.4464 2.68283 12.6908C2.05382 11.0091 1.82385 9.69889 1.92531 8.46294C1.99294 7.67275 2.29731 7.01763 2.85869 6.45706L5.16509 4.15401C5.49651 3.84333 5.84822 3.67448 6.19317 3.67448C6.61928 3.67448 6.96423 3.93113 7.18066 4.14725C7.18743 4.15401 7.19419 4.16076 7.20095 4.16751C7.61354 4.55248 8.00583 4.95096 8.41841 5.37645C8.62808 5.59257 8.84452 5.80869 9.06096 6.03157L10.9074 7.87536C11.6244 8.59127 11.6244 9.25314 10.9074 9.96905C10.7113 10.1649 10.5219 10.3608 10.3258 10.5499C9.75761 11.1307 9.21652 11.671 8.62808 12.1978C8.61456 12.2113 8.60103 12.2181 8.59426 12.2316C8.01259 12.8124 8.12081 13.3797 8.24255 13.7647C8.24932 13.785 8.25608 13.8052 8.26285 13.8255C8.74306 14.9871 9.41943 16.0813 10.4475 17.3847L10.4543 17.3915C12.321 19.6878 14.2893 21.4776 16.4604 22.8486C16.7377 23.0242 17.0218 23.166 17.2923 23.3011C17.5358 23.4227 17.7658 23.5375 17.9619 23.659C17.989 23.6726 18.016 23.6928 18.0431 23.7063C18.273 23.8211 18.4895 23.8752 18.7127 23.8752C19.2741 23.8752 19.6258 23.524 19.7408 23.4091L22.0539 21.0993C22.2839 20.8697 22.6491 20.5928 23.0752 20.5928C23.4946 20.5928 23.8395 20.8562 24.0492 21.0858C24.056 21.0926 24.056 21.0926 24.0627 21.0993L27.7895 24.8207C28.4862 25.5096 28.4862 26.2187 27.7963 26.9346Z" fill="#FEAA50"/>
<path d="M17.3667 7.61195C19.1388 7.90911 20.7485 8.74659 22.0336 10.0298C23.3187 11.313 24.1506 12.9205 24.455 14.69C24.5294 15.1357 24.9149 15.4464 25.3546 15.4464C25.4087 15.4464 25.456 15.4396 25.5101 15.4329C26.0106 15.3518 26.3421 14.8791 26.2609 14.3793C25.8957 12.2383 24.8811 10.2865 23.3322 8.73983C21.7834 7.19321 19.8287 6.18014 17.6846 5.81543C17.1841 5.73438 16.7174 6.06532 16.6295 6.55835C16.5415 7.05138 16.8662 7.5309 17.3667 7.61195Z" fill="#FEAA50"/>
<path d="M32.0574 14.1159C31.4554 10.5904 29.7915 7.38232 27.2349 4.82938C24.6782 2.27643 21.4655 0.614991 17.9349 0.0139004C17.4411 -0.0738993 16.9744 0.263792 16.8865 0.756821C16.8053 1.2566 17.1367 1.72262 17.6373 1.81042C20.7891 2.34397 23.6637 3.83656 25.9498 6.1126C28.2359 8.39539 29.7239 11.2658 30.2582 14.4131C30.3326 14.8588 30.7181 15.1695 31.1578 15.1695C31.2119 15.1695 31.2592 15.1627 31.3134 15.156C31.8071 15.0817 32.1453 14.6089 32.0574 14.1159Z" fill="#FEAA50"/>
</svg>
