<svg width="34" height="32" viewBox="0 0 34 32" fill="none" xmlns="http://www.w3.org/2000/svg">
<g clip-path="url(#clip0_44_1066)">
<path d="M33.5278 14.1176L26.8222 1.97647C26.1611 0.752941 24.9333 0 23.6111 0H10.3889C9.06666 0 7.83888 0.752941 7.17777 1.97647L0.472213 14.1176C-0.188898 15.2471 -0.188898 16.6588 0.472213 17.8824L7.17777 30.0235C7.83888 31.2471 9.06666 32 10.3889 32H23.6111C24.9333 32 26.1611 31.2471 26.8222 30.0235L33.5278 17.8824C34.1889 16.7529 34.1889 15.2471 33.5278 14.1176ZM23.6111 30.1176H10.3889C9.72777 30.1176 9.06666 29.7412 8.78332 29.1765L2.07777 16.9412C1.79444 16.3765 1.79444 15.6235 2.07777 15.0588L8.78332 2.82353C9.1611 2.25882 9.72777 1.88235 10.3889 1.88235H23.6111C24.2722 1.88235 24.9333 2.25882 25.2167 2.82353L31.9222 15.0588C32.2055 15.6235 32.2055 16.3765 31.9222 16.9412L25.2167 29.1765C24.9333 29.7412 24.2722 30.1176 23.6111 30.1176Z" fill="#FEAA50"/>
<path d="M23.6111 14.9647C23.2333 14.5882 22.8556 14.4 22.3833 14.4C21.9111 14.4 21.4389 14.5882 21.1556 14.9647L19.7389 16.4706V7.52939C19.7389 6.49409 18.8889 5.64703 17.9444 5.64703H16.0556C15.1111 5.64703 14.3556 6.49409 14.3556 7.52939V16.3764L12.9389 14.9647C12.5611 14.5882 12.0889 14.4 11.6167 14.4C11.1444 14.4 10.6722 14.5882 10.2944 14.9647L8.87778 16.3764C8.68889 16.7529 8.5 17.2235 8.5 17.6C8.5 18.1647 8.68889 18.5412 9.06667 18.8235L15.7722 25.6941C16.15 26.0706 16.5278 26.2588 17 26.2588C17.0944 26.2588 17.1889 26.2588 17.2833 26.2588C17.6611 26.2588 18.0389 26.0706 18.4167 25.7882L25.1222 18.9176C25.7833 18.2588 25.7833 17.0353 25.1222 16.3764L23.6111 14.9647ZM18.5111 19.5764C18.8889 19.6706 19.2667 19.5764 19.4556 19.3882L22.3833 16.3764L23.7056 17.7882L17 24.5647L10.2944 17.6941L11.7111 16.2823H11.8056L14.7333 19.2C15.0167 19.4823 15.3944 19.5764 15.7722 19.3882C16.15 19.2 16.3389 18.9176 16.3389 18.5412V7.52939H17.9444V18.7294C17.9444 19.1059 18.2278 19.4823 18.5111 19.5764Z" fill="#FEAA50"/>
</g>
<defs>
<clipPath id="clip0_44_1066">
<rect width="34" height="32" fill="white"/>
</clipPath>
</defs>
</svg>
