<svg width="24" height="24" viewBox="0 0 24 24" fill="none" xmlns="http://www.w3.org/2000/svg">
<path d="M6.99989 12.0002V16.0002C6.99989 16.2654 7.10525 16.5198 7.29279 16.7073C7.48032 16.8948 7.73468 17.0002 7.99989 17.0002H11.9999C12.1315 17.0009 12.262 16.9757 12.3838 16.926C12.5056 16.8762 12.6165 16.8029 12.7099 16.7102L19.9999 9.43019C20.6387 8.78271 20.9968 7.90974 20.9968 7.00019C20.9968 6.09064 20.6387 5.21767 19.9999 4.57019L19.4299 4.00019C18.7728 3.37994 17.9035 3.03442 16.9999 3.03442C16.0963 3.03442 15.227 3.37994 14.5699 4.00019L7.28989 11.2902C7.19721 11.3836 7.12389 11.4944 7.07412 11.6163C7.02436 11.7381 6.99913 11.8686 6.99989 12.0002ZM8.99989 12.4102L15.9999 5.41019C16.2707 5.15566 16.6283 5.01395 16.9999 5.01395C17.3715 5.01395 17.7291 5.15566 17.9999 5.41019L18.5599 5.97019C18.8237 6.23615 18.9717 6.59558 18.9717 6.97019C18.9717 7.34479 18.8237 7.70422 18.5599 7.97019L11.5599 14.9702H8.99989V12.4102Z" fill="#FEAA50"/>
<path d="M20 12C19.7348 12 19.4804 12.1054 19.2929 12.2929C19.1054 12.4804 19 12.7348 19 13V18C19 18.2652 18.8946 18.5196 18.7071 18.7071C18.5196 18.8946 18.2652 19 18 19H6C5.73478 19 5.48043 18.8946 5.29289 18.7071C5.10536 18.5196 5 18.2652 5 18V6C5 5.73478 5.10536 5.48043 5.29289 5.29289C5.48043 5.10536 5.73478 5 6 5H11C11.2652 5 11.5196 4.89464 11.7071 4.70711C11.8946 4.51957 12 4.26522 12 4C12 3.73478 11.8946 3.48043 11.7071 3.29289C11.5196 3.10536 11.2652 3 11 3H6C5.20435 3 4.44129 3.31607 3.87868 3.87868C3.31607 4.44129 3 5.20435 3 6V18C3 18.7956 3.31607 19.5587 3.87868 20.1213C4.44129 20.6839 5.20435 21 6 21H18C18.7956 21 19.5587 20.6839 20.1213 20.1213C20.6839 19.5587 21 18.7956 21 18V13C21 12.7348 20.8946 12.4804 20.7071 12.2929C20.5196 12.1054 20.2652 12 20 12Z" fill="#FEAA50"/>
</svg>
