<svg width="18" height="19" viewBox="0 0 18 19" fill="none" xmlns="http://www.w3.org/2000/svg">
<path d="M3 19.0001H15C15.7956 19.0001 16.5587 18.684 17.1213 18.1214C17.6839 17.5588 18 16.7957 18 16.0001V4.00006C18 3.20441 17.6839 2.44135 17.1213 1.87874C16.5587 1.31613 15.7956 1.00006 15 1.00006H14C14 0.734845 13.8946 0.480491 13.7071 0.292954C13.5196 0.105418 13.2652 6.10352e-05 13 6.10352e-05C12.7348 6.10352e-05 12.4804 0.105418 12.2929 0.292954C12.1054 0.480491 12 0.734845 12 1.00006H6C6 0.734845 5.89464 0.480491 5.70711 0.292954C5.51957 0.105418 5.26522 6.10352e-05 5 6.10352e-05C4.73478 6.10352e-05 4.48043 0.105418 4.29289 0.292954C4.10536 0.480491 4 0.734845 4 1.00006H3C2.20435 1.00006 1.44129 1.31613 0.87868 1.87874C0.316071 2.44135 0 3.20441 0 4.00006V16.0001C0 16.7957 0.316071 17.5588 0.87868 18.1214C1.44129 18.684 2.20435 19.0001 3 19.0001ZM2 4.00006C2 3.73484 2.10536 3.48049 2.29289 3.29295C2.48043 3.10542 2.73478 3.00006 3 3.00006H4V4.00006C4 4.26528 4.10536 4.51963 4.29289 4.70717C4.48043 4.8947 4.73478 5.00006 5 5.00006C5.26522 5.00006 5.51957 4.8947 5.70711 4.70717C5.89464 4.51963 6 4.26528 6 4.00006V3.00006H12V4.00006C12 4.26528 12.1054 4.51963 12.2929 4.70717C12.4804 4.8947 12.7348 5.00006 13 5.00006C13.2652 5.00006 13.5196 4.8947 13.7071 4.70717C13.8946 4.51963 14 4.26528 14 4.00006V3.00006H15C15.2652 3.00006 15.5196 3.10542 15.7071 3.29295C15.8946 3.48049 16 3.73484 16 4.00006V7.00006H2V4.00006ZM2 9.00006H16V16.0001C16 16.2653 15.8946 16.5196 15.7071 16.7072C15.5196 16.8947 15.2652 17.0001 15 17.0001H3C2.73478 17.0001 2.48043 16.8947 2.29289 16.7072C2.10536 16.5196 2 16.2653 2 16.0001V9.00006Z" fill="#FEAA50"/>
</svg>
