<svg width="57" height="54" viewBox="0 0 57 54" fill="none" xmlns="http://www.w3.org/2000/svg">
<ellipse cx="28.5" cy="26.875" rx="28" ry="26.25" fill="#5C4BA7" fill-opacity="0.15"/>
<g clip-path="url(#clip0_109_965)">
<g clip-path="url(#clip1_109_965)">
<path d="M39.6066 16.3934C36.7735 13.5602 33.0067 12 29 12C24.9934 12 21.2265 13.5602 18.3934 16.3934C15.5602 19.2265 14 22.9934 14 27C14 31.0067 15.5602 34.7735 18.3934 37.6066C21.2265 40.4398 24.9934 42 29 42C33.0067 42 36.7735 40.4398 39.6067 37.6066C42.4398 34.7735 44.0001 31.0066 44.0001 27C44.0001 22.9933 42.4398 19.2265 39.6066 16.3934ZM19.6377 17.6377C20.9567 16.3187 22.5051 15.3126 24.1929 14.6559C23.7433 15.2172 23.3227 15.8622 22.9372 16.5877C22.4895 17.4303 22.1032 18.3557 21.7814 19.3441C20.6669 19.1591 19.6342 18.9317 18.7115 18.6647C19.0007 18.3093 19.3092 17.9661 19.6377 17.6377ZM17.6462 20.1788C18.7254 20.5244 19.9595 20.8157 21.3061 21.0465C20.9311 22.6383 20.7103 24.3512 20.6577 26.1202H15.7892C15.9275 23.9972 16.5651 21.971 17.6462 20.1788ZM17.5504 33.6585C16.5277 31.9066 15.9233 29.9389 15.7892 27.8798H20.661C20.7185 29.5983 20.9349 31.2625 21.2972 32.8126C19.923 33.0354 18.6579 33.3194 17.5504 33.6585ZM19.6377 36.3624C19.2638 35.9885 18.9157 35.5959 18.5929 35.1873C19.5493 34.9221 20.6185 34.6975 21.7695 34.5174C22.0935 35.5195 22.484 36.4571 22.9371 37.3101C23.3573 38.1007 23.8192 38.7954 24.3147 39.3905C22.5797 38.7352 20.9884 37.713 19.6377 36.3624ZM28.1202 40.0146C26.7838 39.6402 25.5196 38.4199 24.4911 36.4844C24.1314 35.8075 23.8155 35.069 23.5448 34.282C24.9938 34.1225 26.5357 34.0282 28.1202 34.0061V40.0146ZM28.1202 32.2463C26.3631 32.2703 24.6504 32.3806 23.0465 32.569C22.6928 31.1065 22.4799 29.5234 22.4215 27.8799H28.1202V32.2463H28.1202ZM28.1202 26.1202H22.4181C22.4715 24.4307 22.6878 22.8035 23.0526 21.3037C24.6462 21.5029 26.3553 21.6241 28.1202 21.6588V26.1202ZM28.1202 19.8989C26.5296 19.8669 24.9911 19.7632 23.5523 19.5939C23.8213 18.8151 24.1348 18.0841 24.4911 17.4134C25.5195 15.4779 26.7838 14.2575 28.1202 13.8831V19.8989ZM40.4093 20.2723C41.4566 22.0414 42.0749 24.0339 42.211 26.1202H37.3425C37.2904 24.3715 37.0739 22.6779 36.7068 21.1018C38.0622 20.8829 39.3116 20.6044 40.4093 20.2723ZM38.3623 17.6377C38.7156 17.9909 39.0456 18.3612 39.3534 18.7457C38.4116 19.0028 37.3628 19.2211 36.236 19.3968C35.9109 18.3885 35.5186 17.4453 35.0629 16.5877C34.6774 15.8622 34.2568 15.2172 33.8072 14.6559C35.4949 15.3126 37.0434 16.3187 38.3623 17.6377ZM29.8799 27.8799H35.5787C35.5198 29.5362 35.3041 31.1312 34.9453 32.6032C33.3519 32.4051 31.6436 32.2851 29.8799 32.2513V27.8799ZM29.8799 26.1202V21.6646C31.638 21.6416 33.352 21.5322 34.9574 21.3445C35.3163 22.833 35.529 24.446 35.5819 26.1202H29.8799ZM29.8798 13.8831H29.8798C31.2162 14.2575 32.4804 15.4779 33.5089 17.4134C33.8709 18.0946 34.1886 18.8383 34.4605 19.631C33.0095 19.7899 31.4658 19.8835 29.8798 19.9049V13.8831ZM29.8799 40.0146V34.0112C31.4689 34.0424 33.0063 34.1451 34.4445 34.3133C34.1762 35.0886 33.8638 35.8165 33.5089 36.4844C32.4805 38.4199 31.2163 39.6402 29.8799 40.0146ZM38.3623 36.3624C37.0117 37.713 35.4203 38.7352 33.6853 39.3904C34.1808 38.7953 34.6427 38.1007 35.0629 37.3101C35.5093 36.4698 35.8948 35.5471 36.216 34.5617C37.3565 34.7499 38.4117 34.9827 39.3516 35.2565C39.0444 35.6401 38.715 36.0097 38.3623 36.3624ZM40.4027 33.7389C39.3109 33.3878 38.059 33.0924 36.6922 32.8594C37.0611 31.2961 37.281 29.6156 37.3392 27.8799H42.211C42.0746 29.9704 41.4541 31.967 40.4027 33.7389Z" fill="#5C4BA7"/>
</g>
</g>
<defs>
<clipPath id="clip0_109_965">
<rect width="30" height="30" fill="white" transform="translate(14 12)"/>
</clipPath>
<clipPath id="clip1_109_965">
<rect width="30" height="30" fill="white" transform="translate(14 12)"/>
</clipPath>
</defs>
</svg>
