<svg width="21" height="20" viewBox="0 0 21 20" fill="none" xmlns="http://www.w3.org/2000/svg">
<path d="M15.25 20C15.8181 19.9994 16.3628 19.7734 16.7645 19.3717C17.1663 18.97 17.3922 18.4253 17.3929 17.8571V14.9665C17.3929 14.7771 17.3176 14.5954 17.1836 14.4614C17.0497 14.3275 16.868 14.2522 16.6786 14.2522C16.4891 14.2522 16.3074 14.3275 16.1735 14.4614C16.0395 14.5954 15.9643 14.7771 15.9643 14.9665V17.8571C15.9641 18.0465 15.8888 18.2281 15.7549 18.362C15.621 18.496 15.4394 18.5713 15.25 18.5714H2.39286C2.20347 18.5713 2.02189 18.496 1.88797 18.362C1.75405 18.2281 1.67874 18.0465 1.67857 17.8571V2.14286C1.67874 1.95347 1.75405 1.77189 1.88797 1.63797C2.02189 1.50405 2.20347 1.42874 2.39286 1.42857H15.25C15.4394 1.42874 15.621 1.50405 15.7549 1.63797C15.8888 1.77189 15.9641 1.95347 15.9643 2.14286V4.34571C15.9643 4.53515 16.0395 4.71684 16.1735 4.85079C16.3074 4.98475 16.4891 5.06 16.6786 5.06C16.868 5.06 17.0497 4.98475 17.1836 4.85079C17.3176 4.71684 17.3929 4.53515 17.3929 4.34571V2.14286C17.3922 1.57473 17.1663 1.03005 16.7645 0.628317C16.3628 0.226589 15.8181 0.000623914 15.25 0H2.39286C1.82473 0.000623914 1.28005 0.226589 0.878317 0.628317C0.476589 1.03005 0.250624 1.57473 0.25 2.14286V17.8571C0.250624 18.4253 0.476589 18.97 0.878317 19.3717C1.28005 19.7734 1.82473 19.9994 2.39286 20H15.25Z"/>
<path d="M3.8214 12.1429C3.63196 12.1429 3.45028 12.2181 3.31633 12.3521C3.18237 12.486 3.10712 12.6677 3.10712 12.8572C3.10712 13.0466 3.18237 13.2283 3.31633 13.3622C3.45028 13.4962 3.63196 13.5715 3.8214 13.5715H6.67854C6.86799 13.5715 7.04967 13.4962 7.18362 13.3622C7.31758 13.2283 7.39283 13.0466 7.39283 12.8572C7.39283 12.6677 7.31758 12.486 7.18362 12.3521C7.04967 12.2181 6.86799 12.1429 6.67854 12.1429H3.8214Z"/>
<path d="M17.826 6.11813C17.692 5.98422 17.5104 5.909 17.321 5.909C17.1316 5.909 16.9499 5.98422 16.816 6.11813L9.74497 13.1891C9.67861 13.2554 9.62597 13.3342 9.59006 13.4208C9.55415 13.5075 9.53567 13.6004 9.53569 13.6942V15H3.8214C3.63196 15 3.45028 15.0752 3.31633 15.2092C3.18237 15.3432 3.10712 15.5248 3.10712 15.7143C3.10712 15.9037 3.18237 16.0854 3.31633 16.2193C3.45028 16.3533 3.63196 16.4286 3.8214 16.4286H12.2704C12.4598 16.4285 12.6415 16.3532 12.7754 16.2193L19.8468 9.14827C19.9807 9.01432 20.056 8.83268 20.056 8.64327C20.056 8.45387 19.9807 8.27222 19.8468 8.13827L17.826 6.11813ZM11.9747 15H10.9643V13.9899L17.321 7.6332L18.3314 8.64327L11.9747 15Z"/>
<path d="M9.53569 6.0714C9.53569 5.43568 9.34717 4.81423 8.99398 4.28564C8.64079 3.75706 8.13879 3.34507 7.55146 3.10179C6.96412 2.85851 6.31784 2.79486 5.69433 2.91888C5.07082 3.0429 4.49809 3.34903 4.04856 3.79856C3.59903 4.24809 3.2929 4.82082 3.16888 5.44433C3.04486 6.06784 3.10851 6.71412 3.35179 7.30146C3.59507 7.88879 4.00706 8.39079 4.53564 8.74398C5.06423 9.09717 5.68568 9.28569 6.3214 9.28569C7.17359 9.28474 7.99061 8.94579 8.5932 8.3432C9.19579 7.74061 9.53474 6.92359 9.53569 6.0714ZM6.3214 7.85712C5.96822 7.85712 5.62297 7.75239 5.32931 7.55617C5.03565 7.35995 4.80678 7.08106 4.67162 6.75477C4.53646 6.42847 4.5011 6.06942 4.57 5.72303C4.6389 5.37663 4.80898 5.05845 5.05871 4.80871C5.30845 4.55898 5.62663 4.3889 5.97303 4.32C6.31942 4.2511 6.67847 4.28646 7.00477 4.42162C7.33106 4.55678 7.60995 4.78565 7.80617 5.07931C8.00239 5.37297 8.10712 5.71822 8.10712 6.0714C8.10663 6.54485 7.91833 6.99877 7.58355 7.33355C7.24877 7.66833 6.79485 7.85663 6.3214 7.85712Z"/>
</svg>
