<svg width="57" height="56" viewBox="0 0 57 56" fill="none" xmlns="http://www.w3.org/2000/svg">
<circle cx="28.5" cy="28" r="28" fill="#5C4BA7" fill-opacity="0.15"/>
<g clip-path="url(#clip0_28_207)">
<path d="M43.9706 21.8201C43.9003 20.2261 43.6425 19.1302 43.2733 18.1806C42.8924 17.1726 42.3063 16.2702 41.5385 15.52C40.7883 14.7582 39.8799 14.1662 38.8836 13.7912C37.9285 13.4219 36.8384 13.1641 35.2444 13.0939C33.6385 13.0176 33.1286 13 29.0556 13C24.9825 13 24.4727 13.0176 22.8727 13.0879C21.2787 13.1582 20.1829 13.4162 19.2335 13.7852C18.2253 14.1662 17.3229 14.7522 16.5727 15.52C15.8108 16.2702 15.2191 17.1786 14.8438 18.1749C14.4746 19.1302 14.2168 20.2201 14.1465 21.8141C14.0703 23.42 14.0527 23.9299 14.0527 28.0029C14.0527 32.076 14.0703 32.5858 14.1406 34.1858C14.2109 35.7798 14.4689 36.8757 14.8381 37.8253C15.2191 38.8332 15.8108 39.7356 16.5727 40.4858C17.3229 41.2477 18.2313 41.8397 19.2276 42.2147C20.1829 42.584 21.2728 42.8417 22.867 42.912C24.4668 42.9825 24.9768 42.9999 29.0499 42.9999C33.1229 42.9999 33.6327 42.9825 35.2327 42.912C36.8267 42.8417 37.9226 42.584 38.8719 42.2147C40.8881 41.4352 42.4821 39.8412 43.2616 37.8253C43.6306 36.8699 43.8886 35.7798 43.9589 34.1858C44.0292 32.5858 44.0468 32.076 44.0468 28.0029C44.0468 23.9299 44.0409 23.42 43.9706 21.8201ZM41.269 34.0686C41.2045 35.5337 40.9584 36.3249 40.7533 36.8523C40.2492 38.1593 39.2119 39.1965 37.905 39.7006C37.3775 39.9057 36.5806 40.1518 35.1212 40.2162C33.5389 40.2867 33.0643 40.3041 29.0615 40.3041C25.0588 40.3041 24.5782 40.2867 23.0016 40.2162C21.5365 40.1518 20.7453 39.9057 20.2179 39.7006C19.5675 39.4602 18.9755 39.0793 18.495 38.5812C17.9968 38.0947 17.6159 37.5086 17.3755 36.8583C17.1704 36.3308 16.9243 35.5337 16.86 34.0745C16.7895 32.4922 16.7721 32.0174 16.7721 28.0146C16.7721 24.0118 16.7895 23.5313 16.86 21.9549C16.9243 20.4898 17.1704 19.6986 17.3755 19.1712C17.6159 18.5206 17.9968 17.9288 18.5009 17.448C18.9872 16.9499 19.5732 16.569 20.2238 16.3288C20.7513 16.1237 21.5484 15.8776 23.0076 15.813C24.5899 15.7428 25.0647 15.7251 29.0673 15.7251C33.076 15.7251 33.5506 15.7428 35.1272 15.813C36.5923 15.8776 37.3835 16.1237 37.9109 16.3288C38.5613 16.569 39.1533 16.9499 39.6338 17.448C40.132 17.9345 40.5129 18.5206 40.7533 19.1712C40.9584 19.6986 41.2045 20.4955 41.269 21.9549C41.3393 23.5373 41.3569 24.0118 41.3569 28.0146C41.3569 32.0174 41.3393 32.4862 41.269 34.0686Z" fill="#5C4BA7"/>
<path d="M29.0556 20.2963C24.801 20.2963 21.3491 23.7481 21.3491 28.0029C21.3491 32.2578 24.801 35.7095 29.0556 35.7095C33.3105 35.7095 36.7622 32.2578 36.7622 28.0029C36.7622 23.7481 33.3105 20.2963 29.0556 20.2963ZM29.0556 33.002C26.2955 33.002 24.0566 30.7633 24.0566 28.0029C24.0566 25.2425 26.2955 23.0039 29.0556 23.0039C31.816 23.0039 34.0547 25.2425 34.0547 28.0029C34.0547 30.7633 31.816 33.002 29.0556 33.002Z" fill="#5C4BA7"/>
<path d="M38.8663 19.9917C38.8663 20.9852 38.0607 21.7908 37.0669 21.7908C36.0734 21.7908 35.2678 20.9852 35.2678 19.9917C35.2678 18.9979 36.0734 18.1925 37.0669 18.1925C38.0607 18.1925 38.8663 18.9979 38.8663 19.9917Z" fill="#5C4BA7"/>
</g>
<defs>
<clipPath id="clip0_28_207">
<rect width="30" height="30" fill="white" transform="translate(14 13)"/>
</clipPath>
</defs>
</svg>
