<svg width="147" height="60" viewBox="0 0 147 60" fill="none" xmlns="http://www.w3.org/2000/svg">
<g clip-path="url(#clip0_601_474)">
<path d="M17.2626 2.65018L22.1047 11.0777L17.2626 19.5053H7.63105L2.78895 11.0777L7.63105 2.65018H17.2626ZM17.9468 0H6.99948C6.47316 0 5.94684 0.265018 5.68369 0.742049L0.210003 10.2827C-0.0531552 10.7597 -0.0531552 11.3428 0.210003 11.7668L5.68369 21.3074C5.94684 21.7845 6.42053 22.0495 6.99948 22.0495H17.9468C18.4732 22.0495 18.9995 21.7845 19.2626 21.3074L24.7363 11.7668C24.9995 11.2898 24.9995 10.7067 24.7363 10.2827L19.2626 0.742049C18.9468 0.265018 18.4732 0 17.9468 0Z" fill="white"/>
<path d="M17.2632 27.8799L22.1053 36.3074L17.2632 44.735H7.6316L2.7895 36.3074L7.6316 27.8799H17.2632ZM17.9474 25.2297H6.94739C6.42108 25.2297 5.94739 25.4947 5.68424 25.9717L0.210552 35.5654C-0.0526059 36.0424 -0.0526059 36.6254 0.210552 37.0495L5.68424 46.6431C5.94739 47.1201 6.42108 47.3852 6.94739 47.3852H17.8948C18.4211 47.3852 18.8948 47.1201 19.1579 46.6431L24.7369 37.0495C25 36.5724 25 35.9894 24.7369 35.5654L19.2106 25.9717C18.9474 25.5477 18.4737 25.2297 17.9474 25.2297Z" fill="white"/>
<path d="M34.2632 15.265C37.2632 15.265 40 16.8552 41.5263 19.4523C43 22.0495 43 25.2827 41.5263 27.8799C40.0526 30.4771 37.2632 32.0672 34.2632 32.0672C31.2632 32.0672 28.5263 30.4771 27 27.8799C25.5263 25.2827 25.5263 22.0495 27 19.4523C28.4737 16.9082 31.2632 15.265 34.2632 15.265ZM34.2632 12.6149C30.3158 12.6149 26.6842 14.735 24.7368 18.1272C22.7895 21.5725 22.7895 25.7597 24.7368 29.205C26.6842 32.6502 30.3158 34.7173 34.2632 34.7173C38.2105 34.7173 41.8421 32.5972 43.7895 29.205C45.7368 25.7597 45.7368 21.5725 43.7895 18.1272C41.7895 14.735 38.1579 12.6149 34.2632 12.6149Z" fill="white"/>
<path d="M39.0526 40.4947L43.8947 48.9223L39.0526 57.3499H29.421L24.5789 48.9223L29.421 40.4947H39.0526ZM39.7368 37.8445H28.7895C28.2631 37.8445 27.7368 38.1096 27.4737 38.5866L22 48.1272C21.7368 48.6043 21.7368 49.1873 22 49.6113L27.4737 59.152C27.7368 59.629 28.2105 59.894 28.7895 59.894H39.7368C40.2631 59.894 40.7895 59.629 41.0526 59.152L46.5263 49.6113C46.7895 49.1343 46.7895 48.5513 46.5263 48.1272L41.0526 38.5866C40.7368 38.1626 40.2631 37.8445 39.7368 37.8445Z" fill="white"/>
<path d="M58.9474 32.6961C58.7895 32.6961 58.6316 32.6431 58.4737 32.4841C58.3684 32.3781 58.3158 32.2191 58.3158 32.0071V14.7809C58.3158 14.5689 58.3684 14.4099 58.4737 14.3039C58.579 14.1979 58.7368 14.1449 58.9474 14.1449H66.1579C67.5789 14.1449 68.8421 14.3569 69.8947 14.8339C70.9474 15.311 71.7368 15.947 72.3158 16.8481C72.8947 17.7491 73.2105 18.8622 73.2105 20.1873C73.2105 21.5124 72.9474 22.6255 72.3158 23.4735C71.7368 24.3216 70.9474 25.0106 69.8947 25.4347C68.8421 25.8587 67.5789 26.0707 66.1579 26.0707H62.6316V32.0601C62.6316 32.2721 62.579 32.4311 62.4211 32.5371C62.3158 32.6431 62.1579 32.7491 61.9474 32.7491H58.9474V32.6961ZM62.579 22.7315H66C66.8947 22.7315 67.5789 22.5195 68.1053 22.0424C68.5789 21.6184 68.8421 20.9294 68.8421 20.0813C68.8421 19.2862 68.6316 18.6502 68.1579 18.1202C67.7368 17.6431 67 17.3781 66 17.3781H62.579V22.7315Z" fill="white"/>
<path d="M79.3158 32.9612C78.3685 32.9612 77.5264 32.8022 76.7895 32.4311C76.0527 32.0601 75.4737 31.5831 75.0527 30.947C74.6316 30.311 74.3685 29.6219 74.3685 28.8799C74.3685 27.6078 74.8948 26.6537 75.8948 25.9117C76.8948 25.1696 78.2106 24.6926 79.8948 24.4276L83.3158 23.9506V23.4735C83.3158 22.7845 83.1579 22.2544 82.8422 21.8834C82.5264 21.5124 82.0001 21.3534 81.2106 21.3534C80.6316 21.3534 80.1579 21.4594 79.8422 21.6714C79.4737 21.8834 79.2106 22.2014 79.0527 22.5725C78.8948 22.7845 78.6843 22.9435 78.4211 22.9435H75.8948C75.6843 22.9435 75.579 22.8905 75.4737 22.7845C75.3685 22.6785 75.3158 22.5195 75.3158 22.3605C75.3158 22.0424 75.4211 21.7244 75.6316 21.3004C75.8422 20.8764 76.2106 20.5053 76.6843 20.0813C77.1579 19.6573 77.7895 19.3393 78.5264 19.0742C79.2632 18.8092 80.1579 18.6502 81.2106 18.6502C82.3158 18.6502 83.2632 18.8092 84.0527 19.0742C84.8422 19.3393 85.4737 19.7103 85.9474 20.1873C86.4211 20.6643 86.7895 21.1944 87.0001 21.8304C87.2106 22.4665 87.3158 23.1555 87.3158 23.8446V32.0601C87.3158 32.2721 87.2632 32.4311 87.158 32.5371C87.0527 32.6431 86.8948 32.7491 86.7369 32.7491H84.1053C83.9474 32.7491 83.7895 32.6961 83.6316 32.5371C83.5264 32.4311 83.4737 32.2721 83.4737 32.0601V31.053C83.2632 31.3711 82.9474 31.6891 82.5264 32.0071C82.1579 32.2721 81.6843 32.5371 81.1579 32.6961C80.6843 32.8552 80.0527 32.9612 79.3158 32.9612ZM80.3685 30.205C80.9474 30.205 81.4737 30.099 81.9474 29.834C82.4211 29.5689 82.7369 29.1979 83.0001 28.7209C83.2632 28.2438 83.4211 27.5548 83.4211 26.7597V26.3357L81 26.7597C80.0527 26.9188 79.3685 27.1838 78.9474 27.4488C78.5264 27.7668 78.2632 28.1378 78.2632 28.6149C78.2632 28.9329 78.3685 29.2509 78.579 29.4629C78.7895 29.7279 79.0527 29.887 79.3685 29.993C79.6843 30.152 80 30.205 80.3685 30.205Z" fill="white"/>
<path d="M95.9474 32.9612C94.8421 32.9612 93.9474 32.8552 93.1579 32.5901C92.3684 32.3251 91.7368 32.0071 91.2632 31.6361C90.7895 31.265 90.421 30.894 90.2105 30.523C90 30.152 89.8421 29.834 89.8421 29.5689C89.8421 29.3569 89.8947 29.1979 90 29.0919C90.1579 28.9859 90.2632 28.9329 90.4211 28.9329H93C93.0526 28.9329 93.1053 28.9329 93.1579 28.9329C93.2105 28.9329 93.2632 28.9859 93.3158 29.0919C93.5263 29.2509 93.7895 29.4099 94 29.6219C94.2632 29.834 94.5263 29.993 94.8421 30.152C95.1579 30.311 95.5789 30.364 96.0526 30.364C96.6316 30.364 97.1053 30.258 97.5263 29.993C97.9474 29.7279 98.1053 29.4099 98.1053 28.9859C98.1053 28.6679 98 28.4029 97.8421 28.1908C97.6842 27.9788 97.3158 27.7668 96.7895 27.6078C96.2632 27.4488 95.5263 27.2368 94.5263 27.0248C93.579 26.8128 92.7895 26.5477 92.1053 26.1767C91.4211 25.8057 90.9474 25.3817 90.5789 24.8516C90.2632 24.3216 90.0526 23.6855 90.0526 22.8905C90.0526 22.2014 90.2632 21.5654 90.6842 20.8764C91.1053 20.2403 91.7368 19.7103 92.5789 19.2863C93.4211 18.8622 94.4737 18.6502 95.7368 18.6502C96.6842 18.6502 97.5263 18.7562 98.2632 19.0212C99 19.2863 99.579 19.5513 100.105 19.9223C100.579 20.2933 100.947 20.6643 101.211 21.0354C101.474 21.4064 101.579 21.7244 101.632 22.0424C101.632 22.2544 101.579 22.4135 101.474 22.5195C101.368 22.6255 101.211 22.6785 101.053 22.6785H98.6842C98.579 22.6785 98.5263 22.6785 98.4737 22.6255C98.4211 22.5725 98.3158 22.5195 98.2632 22.4665C98.0526 22.3605 97.8421 22.2014 97.6316 21.9894C97.4211 21.7774 97.1579 21.6184 96.8421 21.4594C96.5263 21.3004 96.1579 21.2474 95.6842 21.2474C95.1053 21.2474 94.6842 21.3534 94.3684 21.6184C94.0526 21.8834 93.8947 22.2014 93.8947 22.5725C93.8947 22.8375 94 23.0495 94.1579 23.2615C94.3158 23.4735 94.6316 23.6855 95.1053 23.8446C95.5789 24.0036 96.3158 24.2156 97.3684 24.3746C98.579 24.5866 99.5263 24.9046 100.211 25.3287C100.895 25.7527 101.421 26.2297 101.684 26.8128C102 27.3428 102.158 27.9788 102.158 28.6149C102.158 29.4629 101.895 30.205 101.421 30.841C100.947 31.4771 100.211 32.0071 99.2632 32.3251C98.3158 32.6431 97.3158 32.9612 95.9474 32.9612Z" fill="white"/>
<path d="M110.947 32.9611C108.947 32.9611 107.316 32.3781 106.158 31.265C104.947 30.1519 104.368 28.5088 104.263 26.3357C104.263 26.1767 104.263 26.0177 104.263 25.7526C104.263 25.4876 104.263 25.3286 104.263 25.2226C104.316 23.8445 104.632 22.6784 105.211 21.6714C105.737 20.7173 106.526 19.9223 107.526 19.3922C108.526 18.8622 109.632 18.5972 110.947 18.5972C112.421 18.5972 113.684 18.9152 114.632 19.4982C115.632 20.1343 116.368 20.9293 116.842 21.9894C117.368 23.0495 117.579 24.2685 117.579 25.5936V26.1767C117.579 26.3357 117.526 26.4947 117.368 26.6537C117.211 26.8127 117.105 26.8657 116.895 26.8657H108.316C108.316 26.9717 108.316 27.0247 108.316 27.0777C108.316 27.6608 108.421 28.1378 108.632 28.6148C108.842 29.0919 109.105 29.4629 109.474 29.7279C109.842 29.9929 110.316 30.1519 110.842 30.1519C111.263 30.1519 111.632 30.0989 111.895 29.9399C112.158 29.7809 112.421 29.6749 112.579 29.5159C112.737 29.3569 112.895 29.1979 113 29.0919C113.158 28.8799 113.263 28.7738 113.368 28.7208C113.474 28.6678 113.632 28.6678 113.79 28.6678H116.579C116.737 28.6678 116.895 28.7208 117 28.8268C117.105 28.9329 117.158 29.0919 117.158 29.2509C117.158 29.5689 117 29.8869 116.737 30.3109C116.474 30.735 116.053 31.106 115.526 31.53C115 31.9541 114.368 32.2721 113.579 32.5371C112.895 32.8021 111.947 32.9611 110.947 32.9611ZM108.368 24.4806H113.526V24.3746C113.526 23.7385 113.421 23.2085 113.211 22.7314C113 22.2544 112.737 21.8834 112.316 21.6184C111.895 21.3534 111.474 21.1943 110.947 21.1943C110.421 21.1943 109.947 21.3534 109.579 21.6184C109.211 21.8834 108.895 22.2544 108.684 22.7314C108.474 23.2085 108.368 23.7385 108.368 24.3746V24.4806Z" fill="white"/>
<path d="M120.947 32.6961C120.737 32.6961 120.579 32.6431 120.474 32.4841C120.368 32.3781 120.316 32.2191 120.316 32.0071V14.5159C120.316 14.3039 120.368 14.1449 120.474 14.0389C120.579 13.9329 120.737 13.8799 120.947 13.8799H123.526C123.684 13.8799 123.842 13.9329 124 14.0389C124.158 14.1449 124.211 14.3039 124.211 14.5159V23.4735L128.263 19.3392C128.421 19.2332 128.526 19.1272 128.632 19.0212C128.737 18.9152 128.947 18.8622 129.158 18.8622H132.158C132.316 18.8622 132.474 18.9152 132.579 19.0212C132.684 19.1272 132.737 19.2862 132.737 19.4453C132.737 19.4983 132.737 19.6043 132.684 19.7103C132.632 19.8163 132.579 19.8693 132.474 19.9223L127.421 25.0636L133.158 31.6891C133.316 31.8481 133.368 31.9541 133.368 32.1131C133.368 32.2721 133.316 32.4311 133.211 32.5371C133.105 32.6431 132.947 32.6961 132.789 32.6961H129.737C129.474 32.6961 129.263 32.6431 129.158 32.5371C129.053 32.4311 128.895 32.3251 128.789 32.2191L124.211 27.0248V32.0071C124.211 32.2191 124.158 32.3781 124 32.4841C123.842 32.5901 123.737 32.6961 123.526 32.6961H120.947Z" fill="white"/>
<path d="M138.947 32.9612C138 32.9612 137.211 32.8022 136.421 32.4311C135.684 32.0601 135.105 31.5831 134.684 30.947C134.263 30.311 134 29.6219 134 28.8799C134 27.6078 134.526 26.6537 135.526 25.9117C136.526 25.1696 137.842 24.6926 139.526 24.4276L142.947 23.9506V23.4735C142.947 22.7845 142.789 22.2544 142.474 21.8834C142.158 21.5124 141.632 21.3534 140.842 21.3534C140.263 21.3534 139.789 21.4594 139.474 21.6714C139.105 21.8834 138.842 22.2014 138.684 22.5725C138.526 22.7845 138.316 22.9435 138.053 22.9435H135.526C135.316 22.9435 135.211 22.8905 135.105 22.7845C135 22.6785 134.947 22.5195 134.947 22.3605C134.947 22.0424 135.053 21.7244 135.263 21.3004C135.474 20.8764 135.842 20.5053 136.316 20.0813C136.789 19.6573 137.421 19.3393 138.158 19.0742C138.895 18.8092 139.789 18.6502 140.842 18.6502C141.947 18.6502 142.895 18.8092 143.684 19.0742C144.474 19.3393 145.105 19.7103 145.579 20.1873C146.053 20.6643 146.421 21.1944 146.632 21.8304C146.842 22.4665 146.947 23.1555 146.947 23.8446V32.0601C146.947 32.2721 146.895 32.4311 146.789 32.5371C146.684 32.6431 146.526 32.7491 146.368 32.7491H143.737C143.579 32.7491 143.421 32.6961 143.263 32.5371C143.158 32.4311 143.105 32.2721 143.105 32.0601V31.053C142.895 31.3711 142.579 31.6891 142.158 32.0071C141.789 32.2721 141.316 32.5371 140.789 32.6961C140.263 32.8552 139.632 32.9612 138.947 32.9612ZM140 30.205C140.579 30.205 141.105 30.099 141.579 29.834C142.053 29.5689 142.368 29.1979 142.632 28.7209C142.895 28.2438 143.053 27.5548 143.053 26.7597V26.3357L140.632 26.7597C139.684 26.9188 139 27.1838 138.579 27.4488C138.158 27.7668 137.895 28.1378 137.895 28.6149C137.895 28.9329 138 29.2509 138.211 29.4629C138.421 29.7279 138.684 29.887 139 29.993C139.263 30.152 139.632 30.205 140 30.205Z" fill="white"/>
</g>
<defs>
<clipPath id="clip0_601_474">
<rect width="147" height="60" fill="white"/>
</clipPath>
</defs>
</svg>
