<svg width="81" height="90" viewBox="0 0 81 90" fill="none" xmlns="http://www.w3.org/2000/svg">
<g clip-path="url(#clip0_34_1472)">
<path d="M32.4 53.6439C32.9202 49.2663 35.2982 45.1855 38.9394 44.8145C42.5807 44.4436 47.7826 42.9596 48.0055 47.634C48.2284 52.3083 46.8908 59.2086 43.6954 59.4312C40.5 59.5796 31.9541 57.2795 32.4 53.6439Z" fill="#E5E5E5"/>
<path d="M26.3064 42.2918L15.8284 47.0404C15.5312 47.3372 15.1596 48.7469 14.7137 50.6018C14.7137 50.6018 -1.41194 73.751 0.148612 76.9414C1.70916 80.0577 15.9771 88.8128 15.9771 88.8128C15.9771 88.8128 14.6394 80.4287 22.2193 78.2028L46.2963 75.0865L44.6615 73.009L58.6321 77.535L57.9633 77.906C66.5092 79.7609 65.0229 88.7386 65.0229 88.7386C65.0229 88.7386 79.2908 79.9835 80.8514 76.8672C82.4119 73.751 66.2862 50.6018 66.2862 50.6018C65.8403 48.6727 65.4688 47.263 65.1715 46.9662L54.6936 42.2176L48.9715 39.8433L47.7826 43.7757L44.067 56.3149L40.4257 67.1475L37.3046 57.2794L33.366 43.7757L32.1771 39.6949L26.3064 42.2918ZM15.6055 73.6768L19.9899 66.9992L19.2468 75.8285L15.6055 73.6768ZM61.6046 75.9027L61.1587 67.2217L65.3945 73.6768L61.6046 75.9027Z" fill="#5C4BA7"/>
<path d="M40.5 31.3108L33.5146 27.8236V43.6274C33.5146 43.6274 36.1899 46.892 40.5 46.892C45.5532 46.892 47.4853 43.9242 47.4853 43.9242V30.1237L40.5 31.3108Z" fill="#FFDBA8"/>
<path d="M47.4853 33.9818C47.4853 33.9818 44.1413 37.0239 33.5146 42.8112V32.4979L47.4853 33.9818Z" fill="#FFC186"/>
<path d="M40.5 43.0338V48.8953L38.7165 49.5631L36.1899 45.2597C36.1899 45.1855 38.5679 43.1822 40.5 43.0338Z" fill="#C74992"/>
<path d="M33.5147 39.0272L32.1771 39.695L35.3725 50.676L40.5001 43.0338C40.5001 43.0338 37.6019 42.5886 33.5147 39.0272Z" fill="#DFE1DE"/>
<path d="M29.5762 19.4394C29.5762 19.4394 31.2111 32.2011 31.5826 32.8689C31.9542 33.4625 38.4193 37.0239 40.5744 36.8755V5.93567C40.5 5.93567 26.9753 0.296757 29.5762 19.4394Z" fill="#FFDBA8"/>
<path d="M51.4238 19.4394C51.4238 19.4394 49.789 32.2012 49.4174 32.869C49.0458 33.4625 42.5807 37.0239 40.4257 36.8756V5.93573C40.5 5.93573 53.2073 3.19047 51.4238 19.4394Z" fill="#FFDBA8"/>
<path d="M49.4917 27.0074C49.4917 27.0074 51.3495 27.7493 52.5385 23.9653C53.8761 19.6619 52.9844 17.7328 51.7211 17.8812C51.2752 17.9554 50.9779 18.0296 50.6807 18.178C49.8633 18.6232 49.6403 19.5135 49.6403 19.5135L49.4917 27.0074Z" fill="#FFDBA8"/>
<path d="M31.5083 27.0074C31.5083 27.0074 29.6505 27.7493 28.4615 23.9653C27.1239 19.6619 28.0156 17.7328 29.2789 17.8812C29.7248 17.9554 30.0221 18.0296 30.3193 18.178C31.1367 18.6232 31.3597 19.5135 31.3597 19.5135L31.5083 27.0074Z" fill="#FFDBA8"/>
<path d="M28.3129 7.93903C27.3468 10.5359 29.2789 18.1781 29.2789 18.1781L30.5422 20.1072L30.245 15.8038C30.245 15.8038 32.9202 9.94233 32.1771 7.79064L30.4679 5.34216C30.5422 5.34216 28.6101 7.12287 28.3129 7.93903Z" fill="#FEAA50"/>
<path d="M52.6871 7.93903C53.6532 10.5359 51.7211 18.1781 51.7211 18.1781L50.4578 20.1072L50.755 15.8038C50.755 15.8038 48.0798 9.94233 48.8229 7.79064L50.5321 5.34216C50.4578 5.34216 52.3899 7.12287 52.6871 7.93903Z" fill="#FEAA50"/>
<path d="M40.5 0C37.2303 0 32.5487 1.48392 30.5422 5.34213L32.2514 7.7906C32.2514 7.7906 36.8588 10.2391 40.6487 10.5359C43.0266 10.6843 46.8166 10.8326 49.7147 8.53256L50.4578 5.34213C50.4578 5.34213 48.0799 0 40.5 0Z" fill="#FEAA50"/>
<path d="M40.5 43.0338V48.8953L42.2835 49.5631L44.8101 45.2597C44.8101 45.1855 42.4321 43.1822 40.5 43.0338Z" fill="#C74992"/>
<path d="M47.4853 38.953L48.9716 39.9176L45.7761 50.676L40.5 43.0338C40.5 43.0338 43.3982 42.4402 47.4853 38.953Z" fill="#FAF8FA"/>
<path d="M40.5 67.5185V48.8953L38.7165 49.563C38.7165 49.563 37.6018 54.6826 37.3046 57.3536L38.4936 61.3602L40.5 67.5185Z" fill="#C74992"/>
<path d="M42.5065 61.286L43.6955 57.2794C43.3982 54.6825 42.2836 49.4888 42.2836 49.4888L40.5001 48.821V59.5053L40.3514 66.7765L42.5065 61.286Z" fill="#C74992"/>
<path d="M15.9771 88.8871C15.9771 88.8871 18.1321 89.8516 21.4762 87.9967C24.8202 86.1418 27.1982 89.7032 27.1982 89.7032L32.3257 83.3966C32.3257 83.3966 32.9202 76.1253 23.0367 78.0544C16.9431 79.2416 15.4569 84.5095 15.9771 88.8871Z" fill="#FFDBA8"/>
<path d="M65.0229 88.8871C65.0229 88.8871 62.8679 89.8516 59.5238 87.9967C56.1798 86.1418 53.7275 89.7032 53.7275 89.7032L48.6 83.3966C48.6 83.3966 48.0055 76.1253 57.889 78.0544C64.0569 79.2416 65.5431 84.5095 65.0229 88.8871Z" fill="#FFDBA8"/>
<path d="M59.5982 89.0354C59.5982 89.4064 59.3009 89.629 58.9294 89.629H21.4018C21.0303 89.629 20.733 89.3322 20.733 89.0354V64.4765C20.733 64.1055 21.0303 63.8829 21.4018 63.8829H59.0037C59.3752 63.8829 59.6725 64.1797 59.6725 64.4765V89.0354H59.5982Z" fill="#F15383"/>
<path d="M59.5982 89.4065C59.5982 89.7775 59.3009 90 58.9294 90H21.4018C21.0303 90 20.733 89.7033 20.733 89.4065V65.4411C20.733 65.0701 21.0303 64.8475 21.4018 64.8475H59.0037C59.3752 64.8475 59.6725 65.1443 59.6725 65.4411V89.4065H59.5982Z" fill="#FEAA50"/>
<path d="M37.7505 78.7221C37.7505 78.9447 37.3046 79.1673 36.7844 79.1673C36.2642 79.1673 35.8184 78.9447 35.8184 78.7221V77.4608C35.8184 77.2382 36.2642 77.0156 36.7844 77.0156C37.3046 77.0156 37.7505 77.2382 37.7505 77.4608V78.7221Z" fill="#F15383"/>
<path d="M40.2027 78.7221C40.2027 78.9447 39.7569 79.1673 39.2367 79.1673C38.7165 79.1673 38.2706 78.9447 38.2706 78.7221V77.4608C38.2706 77.2382 38.7165 77.0156 39.2367 77.0156C39.7569 77.0156 40.2027 77.2382 40.2027 77.4608V78.7221Z" fill="#F15383"/>
<path d="M42.655 78.7221C42.655 78.9447 42.2091 79.1673 41.689 79.1673C41.1688 79.1673 40.7229 78.9447 40.7229 78.7221V77.4608C40.7229 77.2382 41.1688 77.0156 41.689 77.0156C42.2091 77.0156 42.655 77.2382 42.655 77.4608V78.7221Z" fill="#F15383"/>
</g>
<defs>
<clipPath id="clip0_34_1472">
<rect width="81" height="90" fill="white"/>
</clipPath>
</defs>
</svg>
