<svg width="26" height="24" viewBox="0 0 26 24" fill="none" xmlns="http://www.w3.org/2000/svg">
<path d="M25.1635 10.5882L20.1344 1.48235C19.6385 0.564706 18.7177 0 17.726 0H7.80938C6.81771 0 5.89688 0.564706 5.40104 1.48235L0.371875 10.5882C-0.123958 11.4353 -0.123958 12.4941 0.371875 13.4118L5.40104 22.5176C5.89688 23.4353 6.81771 24 7.80938 24H17.726C18.7177 24 19.6385 23.4353 20.1344 22.5176L25.1635 13.4118C25.6594 12.5647 25.6594 11.4353 25.1635 10.5882ZM17.726 22.5882H7.80938C7.31354 22.5882 6.81771 22.3059 6.60521 21.8824L1.57604 12.7059C1.36354 12.2824 1.36354 11.7176 1.57604 11.2941L6.60521 2.11765C6.88854 1.69412 7.31354 1.41176 7.80938 1.41176H17.726C18.2219 1.41176 18.7177 1.69412 18.9302 2.11765L23.9594 11.2941C24.1719 11.7176 24.1719 12.2824 23.9594 12.7059L18.9302 21.8824C18.7177 22.3059 18.2219 22.5882 17.726 22.5882Z" fill="#5C4BA7"/>
<path d="M17.726 11.2236C17.4427 10.9412 17.1594 10.8001 16.8052 10.8001C16.451 10.8001 16.0969 10.9412 15.8844 11.2236L14.8219 12.353V5.64712C14.8219 4.87065 14.1844 4.23535 13.476 4.23535H12.0594C11.351 4.23535 10.7844 4.87065 10.7844 5.64712V12.2824L9.72187 11.2236C9.43853 10.9412 9.08437 10.8001 8.7302 10.8001C8.37603 10.8001 8.02187 10.9412 7.73853 11.2236L6.67603 12.2824C6.53437 12.5648 6.3927 12.9177 6.3927 13.2001C6.3927 13.6236 6.53437 13.9059 6.8177 14.1177L11.8469 19.2706C12.1302 19.553 12.4135 19.6942 12.7677 19.6942C12.8385 19.6942 12.9094 19.6942 12.9802 19.6942C13.2635 19.6942 13.5469 19.553 13.8302 19.3412L18.8594 14.1883C19.3552 13.6942 19.3552 12.7765 18.8594 12.2824L17.726 11.2236ZM13.901 14.6824C14.1844 14.753 14.4677 14.6824 14.6094 14.5412L16.8052 12.2824L17.7969 13.3412L12.7677 18.4236L7.73853 13.2706L8.80103 12.2118H8.87187L11.0677 14.4001C11.2802 14.6118 11.5635 14.6824 11.8469 14.5412C12.1302 14.4001 12.2719 14.1883 12.2719 13.9059V5.64712H13.476V14.0471C13.476 14.3295 13.6885 14.6118 13.901 14.6824Z" fill="#5C4BA7"/>
</svg>
