<svg width="24" height="24" viewBox="0 0 24 24" fill="none" xmlns="http://www.w3.org/2000/svg">
<path d="M23.3825 9.68498L14.8732 1.1663C13.3185 -0.388359 10.7752 -0.388359 9.22303 1.16386L0.617813 9.6847C0.219422 10.0831 0 10.6128 0 11.1762V21.8906C0 23.0539 0.948234 24 2.10938 24H21.8906C23.0536 24 24 23.052 24 21.8906V11.1762C24 10.6128 23.7806 10.0831 23.3825 9.68498ZM10.215 2.16066C10.7201 1.65553 11.3835 1.40302 12.047 1.40302C12.7103 1.40302 13.3737 1.65553 13.8785 2.16038L22.3026 10.5937L16.9606 15.9356L14.5328 13.4962C13.8688 12.8322 12.9859 12.4665 12.0469 12.4665C11.1078 12.4665 10.2249 12.8322 9.56241 13.4948L7.11661 15.9265L1.701 10.5911L10.215 2.16066ZM1.40625 21.6039V12.2748L6.11925 16.9181L1.40625 21.6039ZM2.4052 22.5938C3.22814 21.7755 9.68039 15.3605 10.5553 14.4906C10.9537 14.0922 11.4834 13.8728 12.0469 13.8728C12.6103 13.8728 13.14 14.0922 13.5372 14.4894L21.6031 22.5938H2.4052ZM22.5938 21.5956L17.9526 16.9324L22.5938 12.2912V21.5956Z" fill="#5C4BA7"/>
</svg>
