<svg width="21" height="20" viewBox="0 0 21 20" fill="none" xmlns="http://www.w3.org/2000/svg">
<path d="M10.2502 9.49972C10.8025 9.49972 11.2502 9.05201 11.2502 8.49972C11.2502 7.94744 10.8025 7.49973 10.2502 7.49973C9.6979 7.49973 9.25018 7.94744 9.25018 8.49972C9.25018 9.05201 9.6979 9.49972 10.2502 9.49972Z"/>
<path d="M6.25048 9.49972C6.80277 9.49972 7.25048 9.05201 7.25048 8.49972C7.25048 7.94744 6.80277 7.49973 6.25048 7.49973C5.6982 7.49973 5.25049 7.94744 5.25049 8.49972C5.25049 9.05201 5.6982 9.49972 6.25048 9.49972Z"/>
<path d="M14.2498 9.49972C14.8021 9.49972 15.2498 9.05201 15.2498 8.49972C15.2498 7.94744 14.8021 7.49973 14.2498 7.49973C13.6975 7.49973 13.2498 7.94744 13.2498 8.49972C13.2498 9.05201 13.6975 9.49972 14.2498 9.49972Z"/>
<path d="M1.30007 19.3699C1.50937 19.4563 1.73366 19.5005 1.96007 19.4999C2.18336 19.501 2.4046 19.4574 2.61072 19.3715C2.81683 19.2856 3.00363 19.1593 3.16006 18.9999L5.66005 16.4999H15.25C16.5761 16.4999 17.8479 15.9732 18.7855 15.0355C19.7232 14.0978 20.25 12.826 20.25 11.5V5.49998C20.25 4.1739 19.7232 2.90214 18.7855 1.96446C17.8479 1.02678 16.5761 0.5 15.25 0.5H5.25006C3.92398 0.5 2.65221 1.02678 1.71453 1.96446C0.776856 2.90214 0.250074 4.1739 0.250074 5.49998V17.7899C0.246904 18.1281 0.345276 18.4595 0.532465 18.7412C0.719655 19.0228 0.987051 19.2419 1.30007 19.3699ZM2.25007 5.49998C2.25007 4.70434 2.56614 3.94128 3.12874 3.37867C3.69135 2.81606 4.45441 2.49999 5.25006 2.49999H15.25C16.0457 2.49999 16.8087 2.81606 17.3713 3.37867C17.9339 3.94128 18.25 4.70434 18.25 5.49998V11.5C18.25 12.2956 17.9339 13.0587 17.3713 13.6213C16.8087 14.1839 16.0457 14.5 15.25 14.5H5.25006C5.11845 14.4992 4.98799 14.5244 4.86615 14.5742C4.74431 14.6239 4.6335 14.6973 4.54006 14.79L2.25007 17.0899V5.49998Z"/>
</svg>
