<svg width="11" height="16" viewBox="0 0 11 16" fill="none" xmlns="http://www.w3.org/2000/svg">
<path d="M1.16065 6.68177H10.344C10.5217 6.68177 10.6755 6.61659 10.8052 6.48612C10.9349 6.35569 11.0001 6.20124 11.0001 6.02273C11.0001 5.84422 10.935 5.68984 10.8052 5.55923L6.21354 0.945643C6.0838 0.815359 5.93012 0.75 5.75235 0.75C5.57458 0.75 5.4209 0.815359 5.29105 0.945643L0.699353 5.55923C0.569508 5.6897 0.504639 5.84422 0.504639 6.02273C0.504639 6.20121 0.569508 6.35569 0.699353 6.48612C0.829343 6.61659 0.983025 6.68177 1.16065 6.68177Z" fill="white"/>
<path d="M10.344 9.31836H1.16065C0.982881 9.31836 0.829199 9.38357 0.699353 9.51389C0.569508 9.64436 0.504639 9.79877 0.504639 9.97728C0.504639 10.1558 0.569508 10.3103 0.699353 10.4407L5.29105 15.0542C5.42104 15.1847 5.57472 15.25 5.75235 15.25C5.92998 15.25 6.0838 15.1847 6.21354 15.0542L10.8052 10.4407C10.9349 10.3103 11.0001 10.1558 11.0001 9.97725C11.0001 9.79877 10.935 9.64436 10.8052 9.51386C10.6755 9.38343 10.5217 9.31836 10.344 9.31836Z" fill="#D0D6DE"/>
</svg>
